<?xml version="1.0" encoding="UTF-8" standalone="no"?>
<!DOCTYPE svg PUBLIC "-//W3C//DTD SVG 1.1//EN"
 "http://www.w3.org/Graphics/SVG/1.1/DTD/svg11.dtd">
<!-- Generated by graphviz version 9.0.0 (20230911.1827)
 -->
<!-- Pages: 1 -->
<svg width="450pt" height="226pt"
 viewBox="0.00 0.00 449.50 225.50" xmlns="http://www.w3.org/2000/svg" xmlns:xlink="http://www.w3.org/1999/xlink">
<g id="graph0" class="graph" transform="scale(1 1) rotate(0) translate(4 221.5)">
<polygon fill="white" stroke="none" points="-4,4 -4,-221.5 445.5,-221.5 445.5,4 -4,4"/>
<!-- 4622769888 -->
<g id="node1" class="node">
<title>4622769888</title>
<polygon fill="none" stroke="black" points="276.25,-217.5 167.25,-217.5 167.25,-181.5 276.25,-181.5 276.25,-217.5"/>
<text text-anchor="middle" x="221.75" y="-194.45" font-family="Times,serif" font-size="14.00">Feature A &lt;= 5.0</text>
</g>
<!-- 4622769312 -->
<g id="node2" class="node">
<title>4622769312</title>
<polygon fill="none" stroke="black" points="213,-129 102.5,-129 102.5,-93 213,-93 213,-129"/>
<text text-anchor="middle" x="157.75" y="-105.95" font-family="Times,serif" font-size="14.00">Feature B &lt;= 3.0</text>
</g>
<!-- 4622769888&#45;&gt;4622769312 -->
<g id="edge1" class="edge">
<title>4622769888&#45;&gt;4622769312</title>
<path fill="none" stroke="black" d="M209.11,-181.41C200.05,-169.17 187.68,-152.45 177.35,-138.49"/>
<polygon fill="black" stroke="black" points="180.25,-136.52 171.49,-130.57 174.62,-140.69 180.25,-136.52"/>
<text text-anchor="middle" x="208.5" y="-150.2" font-family="Times,serif" font-size="14.00">True</text>
</g>
<!-- 4622768448 -->
<g id="node5" class="node">
<title>4622768448</title>
<polygon fill="none" stroke="black" points="342,-129 231.5,-129 231.5,-93 342,-93 342,-129"/>
<text text-anchor="middle" x="286.75" y="-105.95" font-family="Times,serif" font-size="14.00">Feature C &lt;= 8.0</text>
</g>
<!-- 4622769888&#45;&gt;4622768448 -->
<g id="edge4" class="edge">
<title>4622769888&#45;&gt;4622768448</title>
<path fill="none" stroke="black" d="M234.59,-181.41C243.79,-169.17 256.35,-152.45 266.85,-138.49"/>
<polygon fill="black" stroke="black" points="269.59,-140.66 272.8,-130.56 264,-136.45 269.59,-140.66"/>
<text text-anchor="middle" x="275" y="-150.2" font-family="Times,serif" font-size="14.00">False</text>
</g>
<!-- 4622770032 -->
<g id="node3" class="node">
<title>4622770032</title>
<polygon fill="none" stroke="black" points="95.5,-40.5 0,-40.5 0,0 95.5,0 95.5,-40.5"/>
<text text-anchor="middle" x="47.75" y="-7.2" font-family="Times,serif" font-size="14.00">Decision: 20.0</text>
</g>
<!-- 4622769312&#45;&gt;4622770032 -->
<g id="edge2" class="edge">
<title>4622769312&#45;&gt;4622770032</title>
<path fill="none" stroke="black" d="M136.28,-92.68C120.38,-79.85 98.42,-62.13 80.36,-47.56"/>
<polygon fill="black" stroke="black" points="83,-45.19 73.02,-41.64 78.61,-50.64 83,-45.19"/>
<text text-anchor="middle" x="125.5" y="-61.7" font-family="Times,serif" font-size="14.00">True</text>
</g>
<!-- 4622768544 -->
<g id="node4" class="node">
<title>4622768544</title>
<polygon fill="none" stroke="black" points="209.5,-40.5 114,-40.5 114,0 209.5,0 209.5,-40.5"/>
<text text-anchor="middle" x="161.75" y="-7.2" font-family="Times,serif" font-size="14.00">Decision: 10.0</text>
</g>
<!-- 4622769312&#45;&gt;4622768544 -->
<g id="edge3" class="edge">
<title>4622769312&#45;&gt;4622768544</title>
<path fill="none" stroke="black" d="M158.52,-92.89C159.04,-81.36 159.74,-65.81 160.36,-52.15"/>
<polygon fill="black" stroke="black" points="163.85,-52.44 160.8,-42.29 156.85,-52.13 163.85,-52.44"/>
<text text-anchor="middle" x="175" y="-61.7" font-family="Times,serif" font-size="14.00">False</text>
</g>
<!-- 4622768736 -->
<g id="node6" class="node">
<title>4622768736</title>
<polygon fill="none" stroke="black" points="327.5,-40.5 232,-40.5 232,0 327.5,0 327.5,-40.5"/>
<text text-anchor="middle" x="279.75" y="-7.2" font-family="Times,serif" font-size="14.00">Decision: 30.0</text>
</g>
<!-- 4622768448&#45;&gt;4622768736 -->
<g id="edge5" class="edge">
<title>4622768448&#45;&gt;4622768736</title>
<path fill="none" stroke="black" d="M285.4,-92.89C284.49,-81.36 283.26,-65.81 282.19,-52.15"/>
<polygon fill="black" stroke="black" points="285.69,-51.98 281.41,-42.29 278.71,-52.53 285.69,-51.98"/>
<text text-anchor="middle" x="297.5" y="-61.7" font-family="Times,serif" font-size="14.00">True</text>
</g>
<!-- 4622769168 -->
<g id="node7" class="node">
<title>4622769168</title>
<polygon fill="none" stroke="black" points="441.5,-40.5 346,-40.5 346,0 441.5,0 441.5,-40.5"/>
<text text-anchor="middle" x="393.75" y="-7.2" font-family="Times,serif" font-size="14.00">Decision: 40.0</text>
</g>
<!-- 4622768448&#45;&gt;4622769168 -->
<g id="edge6" class="edge">
<title>4622768448&#45;&gt;4622769168</title>
<path fill="none" stroke="black" d="M307.63,-92.68C322.96,-79.96 344.07,-62.45 361.55,-47.96"/>
<polygon fill="black" stroke="black" points="363.69,-50.73 369.15,-41.66 359.22,-45.35 363.69,-50.73"/>
<text text-anchor="middle" x="360" y="-61.7" font-family="Times,serif" font-size="14.00">False</text>
</g>
</g>
</svg>
