<?xml version="1.0" encoding="UTF-8" standalone="no"?>
<!DOCTYPE svg PUBLIC "-//W3C//DTD SVG 1.1//EN"
 "http://www.w3.org/Graphics/SVG/1.1/DTD/svg11.dtd">
<!-- Generated by graphviz version 9.0.0 (20230911.1827)
 -->
<!-- Pages: 1 -->
<svg width="140pt" height="188pt"
 viewBox="0.00 0.00 139.50 188.00" xmlns="http://www.w3.org/2000/svg" xmlns:xlink="http://www.w3.org/1999/xlink">
<g id="graph0" class="graph" transform="scale(1 1) rotate(0) translate(4 184)">
<polygon fill="white" stroke="none" points="-4,4 -4,-184 135.5,-184 135.5,4 -4,4"/>
<!-- 4639955504 -->
<g id="node1" class="node">
<title>4639955504</title>
<polygon fill="none" stroke="black" points="92.25,-180 38.25,-180 38.25,-144 92.25,-144 92.25,-180"/>
<text text-anchor="middle" x="65.25" y="-156.95" font-family="Times,serif" font-size="14.00">Root</text>
</g>
<!-- 4639952960 -->
<g id="node2" class="node">
<title>4639952960</title>
<polygon fill="none" stroke="black" points="56.5,-108 0,-108 0,-72 56.5,-72 56.5,-108"/>
<text text-anchor="middle" x="28.25" y="-84.95" font-family="Times,serif" font-size="14.00">Child 1</text>
</g>
<!-- 4639955504&#45;&gt;4639952960 -->
<g id="edge1" class="edge">
<title>4639955504&#45;&gt;4639952960</title>
<path fill="none" stroke="black" d="M56.1,-143.7C52.03,-135.98 47.13,-126.71 42.58,-118.11"/>
<polygon fill="black" stroke="black" points="45.77,-116.65 38,-109.44 39.58,-119.92 45.77,-116.65"/>
</g>
<!-- 4640781120 -->
<g id="node3" class="node">
<title>4640781120</title>
<polygon fill="none" stroke="black" points="131.5,-108 75,-108 75,-72 131.5,-72 131.5,-108"/>
<text text-anchor="middle" x="103.25" y="-84.95" font-family="Times,serif" font-size="14.00">Child 2</text>
</g>
<!-- 4639955504&#45;&gt;4640781120 -->
<g id="edge2" class="edge">
<title>4639955504&#45;&gt;4640781120</title>
<path fill="none" stroke="black" d="M74.64,-143.7C78.83,-135.98 83.86,-126.71 88.53,-118.11"/>
<polygon fill="black" stroke="black" points="91.55,-119.89 93.24,-109.43 85.4,-116.55 91.55,-119.89"/>
</g>
<!-- 4640027648 -->
<g id="node4" class="node">
<title>4640027648</title>
<polygon fill="none" stroke="black" points="131.5,-36 75,-36 75,0 131.5,0 131.5,-36"/>
<text text-anchor="middle" x="103.25" y="-12.95" font-family="Times,serif" font-size="14.00">Child 3</text>
</g>
<!-- 4640781120&#45;&gt;4640027648 -->
<g id="edge3" class="edge">
<title>4640781120&#45;&gt;4640027648</title>
<path fill="none" stroke="black" d="M103.25,-71.7C103.25,-64.41 103.25,-55.73 103.25,-47.54"/>
<polygon fill="black" stroke="black" points="106.75,-47.62 103.25,-37.62 99.75,-47.62 106.75,-47.62"/>
</g>
</g>
</svg>
