<?xml version="1.0" encoding="UTF-8" standalone="no"?>
<!DOCTYPE svg PUBLIC "-//W3C//DTD SVG 1.1//EN"
 "http://www.w3.org/Graphics/SVG/1.1/DTD/svg11.dtd">
<!-- Generated by graphviz version 9.0.0 (20230911.1827)
 -->
<!-- Pages: 1 -->
<svg width="297pt" height="193pt"
 viewBox="0.00 0.00 297.00 192.50" xmlns="http://www.w3.org/2000/svg" xmlns:xlink="http://www.w3.org/1999/xlink">
<g id="graph0" class="graph" transform="scale(1 1) rotate(0) translate(4 188.5)">
<polygon fill="white" stroke="none" points="-4,4 -4,-188.5 293,-188.5 293,4 -4,4"/>
<!-- 4639003696 -->
<g id="node1" class="node">
<title>4639003696</title>
<polygon fill="none" stroke="black" points="223.25,-184.5 114.25,-184.5 114.25,-148.5 223.25,-148.5 223.25,-184.5"/>
<text text-anchor="middle" x="168.75" y="-161.45" font-family="Times,serif" font-size="14.00">Feature A &lt;= 5.0</text>
</g>
<!-- 4641536656 -->
<g id="node2" class="node">
<title>4641536656</title>
<polygon fill="none" stroke="black" points="160,-112.5 49.5,-112.5 49.5,-76.5 160,-76.5 160,-112.5"/>
<text text-anchor="middle" x="104.75" y="-89.45" font-family="Times,serif" font-size="14.00">Feature B &lt;= 3.0</text>
</g>
<!-- 4639003696&#45;&gt;4641536656 -->
<g id="edge1" class="edge">
<title>4639003696&#45;&gt;4641536656</title>
<path fill="none" stroke="black" d="M152.93,-148.2C145.41,-139.97 136.28,-129.98 127.99,-120.92"/>
<polygon fill="black" stroke="black" points="130.74,-118.74 121.41,-113.72 125.57,-123.46 130.74,-118.74"/>
</g>
<!-- 4640616208 -->
<g id="node5" class="node">
<title>4640616208</title>
<polygon fill="none" stroke="black" points="289,-112.5 178.5,-112.5 178.5,-76.5 289,-76.5 289,-112.5"/>
<text text-anchor="middle" x="233.75" y="-89.45" font-family="Times,serif" font-size="14.00">Feature C &lt;= 8.0</text>
</g>
<!-- 4639003696&#45;&gt;4640616208 -->
<g id="edge4" class="edge">
<title>4639003696&#45;&gt;4640616208</title>
<path fill="none" stroke="black" d="M184.82,-148.2C192.45,-139.97 201.73,-129.98 210.15,-120.92"/>
<polygon fill="black" stroke="black" points="212.6,-123.42 216.84,-113.71 207.47,-118.66 212.6,-123.42"/>
</g>
<!-- 4641427312 -->
<g id="node3" class="node">
<title>4641427312</title>
<polygon fill="none" stroke="black" points="95.5,-40.5 0,-40.5 0,0 95.5,0 95.5,-40.5"/>
<text text-anchor="middle" x="47.75" y="-7.2" font-family="Times,serif" font-size="14.00">Decision: 20.0</text>
</g>
<!-- 4641536656&#45;&gt;4641427312 -->
<g id="edge2" class="edge">
<title>4641536656&#45;&gt;4641427312</title>
<path fill="none" stroke="black" d="M90.95,-76.01C84.74,-68.14 77.25,-58.64 70.26,-49.78"/>
<polygon fill="black" stroke="black" points="73.11,-47.74 64.17,-42.06 67.61,-52.08 73.11,-47.74"/>
</g>
<!-- 4641447120 -->
<g id="node4" class="node">
<title>4641447120</title>
<polygon fill="none" stroke="black" points="209.5,-40.5 114,-40.5 114,0 209.5,0 209.5,-40.5"/>
<text text-anchor="middle" x="161.75" y="-7.2" font-family="Times,serif" font-size="14.00">Decision: 10.0</text>
</g>
<!-- 4641536656&#45;&gt;4641447120 -->
<g id="edge3" class="edge">
<title>4641536656&#45;&gt;4641447120</title>
<path fill="none" stroke="black" d="M118.55,-76.01C124.76,-68.14 132.25,-58.64 139.24,-49.78"/>
<polygon fill="black" stroke="black" points="141.89,-52.08 145.33,-42.06 136.39,-47.74 141.89,-52.08"/>
</g>
</g>
</svg>
