<?xml version="1.0" encoding="UTF-8" standalone="no"?>
<!DOCTYPE svg PUBLIC "-//W3C//DTD SVG 1.1//EN"
 "http://www.w3.org/Graphics/SVG/1.1/DTD/svg11.dtd">
<!-- Generated by graphviz version 8.1.0 (20230707.0739)
 -->
<!-- Title: Tree Pages: 1 -->
<svg width="304pt" height="165pt"
 viewBox="0.00 0.00 304.00 165.00" xmlns="http://www.w3.org/2000/svg" xmlns:xlink="http://www.w3.org/1999/xlink">
<g id="graph0" class="graph" transform="scale(1 1) rotate(0) translate(4 161)">
<title>Tree</title>
<polygon fill="white" stroke="none" points="-4,4 -4,-161 300,-161 300,4 -4,4"/>
<!-- 0 -->
<g id="node1" class="node">
<title>0</title>
<polygon fill="#eeab7b" stroke="black" points="220.75,-157 70.5,-157 70.5,-89 220.75,-89 220.75,-157"/>
<text text-anchor="middle" x="145.62" y="-139.7" font-family="Helvetica,sans-Serif" font-size="14.00">x &lt;= 2.5</text>
<text text-anchor="middle" x="145.62" y="-124.7" font-family="Helvetica,sans-Serif" font-size="14.00">squared_error = 0.667</text>
<text text-anchor="middle" x="145.62" y="-109.7" font-family="Helvetica,sans-Serif" font-size="14.00">samples = 6</text>
<text text-anchor="middle" x="145.62" y="-94.7" font-family="Helvetica,sans-Serif" font-size="14.00">value = 1.0</text>
</g>
<!-- 1 -->
<g id="node2" class="node">
<title>1</title>
<polygon fill="#ffffff" stroke="black" points="135.25,-53 0,-53 0,0 135.25,0 135.25,-53"/>
<text text-anchor="middle" x="67.62" y="-35.7" font-family="Helvetica,sans-Serif" font-size="14.00">squared_error = 0.0</text>
<text text-anchor="middle" x="67.62" y="-20.7" font-family="Helvetica,sans-Serif" font-size="14.00">samples = 2</text>
<text text-anchor="middle" x="67.62" y="-5.7" font-family="Helvetica,sans-Serif" font-size="14.00">value = 0.0</text>
</g>
<!-- 0&#45;&gt;1 -->
<g id="edge1" class="edge">
<title>0&#45;&gt;1</title>
<path fill="none" stroke="black" d="M118.13,-88.68C110.95,-79.99 103.21,-70.62 96,-61.87"/>
<polygon fill="black" stroke="black" points="98.06,-59.88 89,-54.39 92.66,-64.33 98.06,-59.88"/>
<text text-anchor="middle" x="86.62" y="-72.48" font-family="Helvetica,sans-Serif" font-size="14.00">True</text>
</g>
<!-- 2 -->
<g id="node3" class="node">
<title>2</title>
<polygon fill="#e58139" stroke="black" points="296,-53 153.25,-53 153.25,0 296,0 296,-53"/>
<text text-anchor="middle" x="224.62" y="-35.7" font-family="Helvetica,sans-Serif" font-size="14.00">squared_error = 0.25</text>
<text text-anchor="middle" x="224.62" y="-20.7" font-family="Helvetica,sans-Serif" font-size="14.00">samples = 4</text>
<text text-anchor="middle" x="224.62" y="-5.7" font-family="Helvetica,sans-Serif" font-size="14.00">value = 1.5</text>
</g>
<!-- 0&#45;&gt;2 -->
<g id="edge2" class="edge">
<title>0&#45;&gt;2</title>
<path fill="none" stroke="black" d="M173.48,-88.68C180.82,-79.9 188.74,-70.42 196.12,-61.6"/>
<polygon fill="black" stroke="black" points="199.25,-64.31 202.98,-54.39 193.88,-59.82 199.25,-64.31"/>
<text text-anchor="middle" x="205.2" y="-72.49" font-family="Helvetica,sans-Serif" font-size="14.00">False</text>
</g>
</g>
</svg>
