<?xml version="1.0" encoding="UTF-8" standalone="no"?>
<!DOCTYPE svg PUBLIC "-//W3C//DTD SVG 1.1//EN"
 "http://www.w3.org/Graphics/SVG/1.1/DTD/svg11.dtd">
<!-- Generated by graphviz version 2.50.0 (20220117.2223)
 -->
<!-- Title: Tree Pages: 1 -->
<svg width="430pt" height="269pt"
 viewBox="0.00 0.00 430.00 269.00" xmlns="http://www.w3.org/2000/svg" xmlns:xlink="http://www.w3.org/1999/xlink">
<g id="graph0" class="graph" transform="scale(1 1) rotate(0) translate(4 265)">
<title>Tree</title>
<polygon fill="white" stroke="transparent" points="-4,4 -4,-265 426,-265 426,4 -4,4"/>
<!-- 0 -->
<g id="node1" class="node">
<title>0</title>
<polygon fill="#f2c09c" stroke="black" points="254,-261 80,-261 80,-193 254,-193 254,-261"/>
<text text-anchor="middle" x="167" y="-245.8" font-family="Helvetica,sans-Serif" font-size="14.00">x &lt;= 2.5</text>
<text text-anchor="middle" x="167" y="-230.8" font-family="Helvetica,sans-Serif" font-size="14.00">squared_error = 0.667</text>
<text text-anchor="middle" x="167" y="-215.8" font-family="Helvetica,sans-Serif" font-size="14.00">samples = 6</text>
<text text-anchor="middle" x="167" y="-200.8" font-family="Helvetica,sans-Serif" font-size="14.00">value = 1.0</text>
</g>
<!-- 1 -->
<g id="node2" class="node">
<title>1</title>
<polygon fill="#ffffff" stroke="black" points="156,-149.5 0,-149.5 0,-96.5 156,-96.5 156,-149.5"/>
<text text-anchor="middle" x="78" y="-134.3" font-family="Helvetica,sans-Serif" font-size="14.00">squared_error = 0.0</text>
<text text-anchor="middle" x="78" y="-119.3" font-family="Helvetica,sans-Serif" font-size="14.00">samples = 2</text>
<text text-anchor="middle" x="78" y="-104.3" font-family="Helvetica,sans-Serif" font-size="14.00">value = 0.0</text>
</g>
<!-- 0&#45;&gt;1 -->
<g id="edge1" class="edge">
<title>0&#45;&gt;1</title>
<path fill="none" stroke="black" d="M138.1,-192.88C128.12,-181.45 116.95,-168.63 106.96,-157.19"/>
<polygon fill="black" stroke="black" points="109.48,-154.75 100.27,-149.52 104.2,-159.36 109.48,-154.75"/>
<text text-anchor="middle" x="98.57" y="-170.76" font-family="Helvetica,sans-Serif" font-size="14.00">True</text>
</g>
<!-- 2 -->
<g id="node3" class="node">
<title>2</title>
<polygon fill="#eca06a" stroke="black" points="339.5,-157 174.5,-157 174.5,-89 339.5,-89 339.5,-157"/>
<text text-anchor="middle" x="257" y="-141.8" font-family="Helvetica,sans-Serif" font-size="14.00">x &lt;= 4.5</text>
<text text-anchor="middle" x="257" y="-126.8" font-family="Helvetica,sans-Serif" font-size="14.00">squared_error = 0.25</text>
<text text-anchor="middle" x="257" y="-111.8" font-family="Helvetica,sans-Serif" font-size="14.00">samples = 4</text>
<text text-anchor="middle" x="257" y="-96.8" font-family="Helvetica,sans-Serif" font-size="14.00">value = 1.5</text>
</g>
<!-- 0&#45;&gt;2 -->
<g id="edge2" class="edge">
<title>0&#45;&gt;2</title>
<path fill="none" stroke="black" d="M196.22,-192.88C204.08,-183.98 212.67,-174.24 220.86,-164.96"/>
<polygon fill="black" stroke="black" points="223.63,-167.11 227.62,-157.3 218.38,-162.48 223.63,-167.11"/>
<text text-anchor="middle" x="229.18" y="-178.55" font-family="Helvetica,sans-Serif" font-size="14.00">False</text>
</g>
<!-- 3 -->
<g id="node4" class="node">
<title>3</title>
<polygon fill="#f2c09c" stroke="black" points="248,-53 92,-53 92,0 248,0 248,-53"/>
<text text-anchor="middle" x="170" y="-37.8" font-family="Helvetica,sans-Serif" font-size="14.00">squared_error = 0.0</text>
<text text-anchor="middle" x="170" y="-22.8" font-family="Helvetica,sans-Serif" font-size="14.00">samples = 2</text>
<text text-anchor="middle" x="170" y="-7.8" font-family="Helvetica,sans-Serif" font-size="14.00">value = 1.0</text>
</g>
<!-- 2&#45;&gt;3 -->
<g id="edge3" class="edge">
<title>2&#45;&gt;3</title>
<path fill="none" stroke="black" d="M226.57,-88.95C218.15,-79.8 209.01,-69.87 200.58,-60.71"/>
<polygon fill="black" stroke="black" points="203.04,-58.22 193.69,-53.24 197.89,-62.96 203.04,-58.22"/>
</g>
<!-- 4 -->
<g id="node5" class="node">
<title>4</title>
<polygon fill="#e58139" stroke="black" points="422,-53 266,-53 266,0 422,0 422,-53"/>
<text text-anchor="middle" x="344" y="-37.8" font-family="Helvetica,sans-Serif" font-size="14.00">squared_error = 0.0</text>
<text text-anchor="middle" x="344" y="-22.8" font-family="Helvetica,sans-Serif" font-size="14.00">samples = 2</text>
<text text-anchor="middle" x="344" y="-7.8" font-family="Helvetica,sans-Serif" font-size="14.00">value = 2.0</text>
</g>
<!-- 2&#45;&gt;4 -->
<g id="edge4" class="edge">
<title>2&#45;&gt;4</title>
<path fill="none" stroke="black" d="M287.43,-88.95C295.85,-79.8 304.99,-69.87 313.42,-60.71"/>
<polygon fill="black" stroke="black" points="316.11,-62.96 320.31,-53.24 310.96,-58.22 316.11,-62.96"/>
</g>
</g>
</svg>
