<?xml version="1.0" encoding="UTF-8" standalone="no"?>
<!DOCTYPE svg PUBLIC "-//W3C//DTD SVG 1.1//EN"
 "http://www.w3.org/Graphics/SVG/1.1/DTD/svg11.dtd">
<!-- Generated by graphviz version 8.1.0 (20230707.0739)
 -->
<!-- Title: Tree Pages: 1 -->
<svg width="376pt" height="269pt"
 viewBox="0.00 0.00 376.25 269.00" xmlns="http://www.w3.org/2000/svg" xmlns:xlink="http://www.w3.org/1999/xlink">
<g id="graph0" class="graph" transform="scale(1 1) rotate(0) translate(4 265)">
<title>Tree</title>
<polygon fill="white" stroke="none" points="-4,4 -4,-265 372.25,-265 372.25,4 -4,4"/>
<!-- 0 -->
<g id="node1" class="node">
<title>0</title>
<polygon fill="#f2c09c" stroke="black" points="220.75,-261 70.5,-261 70.5,-193 220.75,-193 220.75,-261"/>
<text text-anchor="middle" x="145.62" y="-243.7" font-family="Helvetica,sans-Serif" font-size="14.00">x &lt;= 2.5</text>
<text text-anchor="middle" x="145.62" y="-228.7" font-family="Helvetica,sans-Serif" font-size="14.00">squared_error = 0.667</text>
<text text-anchor="middle" x="145.62" y="-213.7" font-family="Helvetica,sans-Serif" font-size="14.00">samples = 6</text>
<text text-anchor="middle" x="145.62" y="-198.7" font-family="Helvetica,sans-Serif" font-size="14.00">value = 1.0</text>
</g>
<!-- 1 -->
<g id="node2" class="node">
<title>1</title>
<polygon fill="#ffffff" stroke="black" points="135.25,-149.5 0,-149.5 0,-96.5 135.25,-96.5 135.25,-149.5"/>
<text text-anchor="middle" x="67.62" y="-132.2" font-family="Helvetica,sans-Serif" font-size="14.00">squared_error = 0.0</text>
<text text-anchor="middle" x="67.62" y="-117.2" font-family="Helvetica,sans-Serif" font-size="14.00">samples = 2</text>
<text text-anchor="middle" x="67.62" y="-102.2" font-family="Helvetica,sans-Serif" font-size="14.00">value = 0.0</text>
</g>
<!-- 0&#45;&gt;1 -->
<g id="edge1" class="edge">
<title>0&#45;&gt;1</title>
<path fill="none" stroke="black" d="M120.08,-192.6C111.67,-181.6 102.3,-169.35 93.84,-158.28"/>
<polygon fill="black" stroke="black" points="96.14,-156.52 87.28,-150.71 90.58,-160.78 96.14,-156.52"/>
<text text-anchor="middle" x="83.98" y="-168.69" font-family="Helvetica,sans-Serif" font-size="14.00">True</text>
</g>
<!-- 2 -->
<g id="node3" class="node">
<title>2</title>
<polygon fill="#eca06a" stroke="black" points="296,-157 153.25,-157 153.25,-89 296,-89 296,-157"/>
<text text-anchor="middle" x="224.62" y="-139.7" font-family="Helvetica,sans-Serif" font-size="14.00">x &lt;= 4.5</text>
<text text-anchor="middle" x="224.62" y="-124.7" font-family="Helvetica,sans-Serif" font-size="14.00">squared_error = 0.25</text>
<text text-anchor="middle" x="224.62" y="-109.7" font-family="Helvetica,sans-Serif" font-size="14.00">samples = 4</text>
<text text-anchor="middle" x="224.62" y="-94.7" font-family="Helvetica,sans-Serif" font-size="14.00">value = 1.5</text>
</g>
<!-- 0&#45;&gt;2 -->
<g id="edge2" class="edge">
<title>0&#45;&gt;2</title>
<path fill="none" stroke="black" d="M171.49,-192.6C178.04,-184.15 185.16,-174.96 191.99,-166.13"/>
<polygon fill="black" stroke="black" points="195.34,-168.52 198.7,-158.47 189.81,-164.24 195.34,-168.52"/>
<text text-anchor="middle" x="201.85" y="-176.47" font-family="Helvetica,sans-Serif" font-size="14.00">False</text>
</g>
<!-- 3 -->
<g id="node4" class="node">
<title>3</title>
<polygon fill="#f2c09c" stroke="black" points="215.25,-53 80,-53 80,0 215.25,0 215.25,-53"/>
<text text-anchor="middle" x="147.62" y="-35.7" font-family="Helvetica,sans-Serif" font-size="14.00">squared_error = 0.0</text>
<text text-anchor="middle" x="147.62" y="-20.7" font-family="Helvetica,sans-Serif" font-size="14.00">samples = 2</text>
<text text-anchor="middle" x="147.62" y="-5.7" font-family="Helvetica,sans-Serif" font-size="14.00">value = 1.0</text>
</g>
<!-- 2&#45;&gt;3 -->
<g id="edge3" class="edge">
<title>2&#45;&gt;3</title>
<path fill="none" stroke="black" d="M197.48,-88.68C190.4,-79.99 182.76,-70.62 175.63,-61.87"/>
<polygon fill="black" stroke="black" points="177.75,-59.94 168.72,-54.39 172.33,-64.36 177.75,-59.94"/>
</g>
<!-- 4 -->
<g id="node5" class="node">
<title>4</title>
<polygon fill="#e58139" stroke="black" points="368.25,-53 233,-53 233,0 368.25,0 368.25,-53"/>
<text text-anchor="middle" x="300.62" y="-35.7" font-family="Helvetica,sans-Serif" font-size="14.00">squared_error = 0.0</text>
<text text-anchor="middle" x="300.62" y="-20.7" font-family="Helvetica,sans-Serif" font-size="14.00">samples = 2</text>
<text text-anchor="middle" x="300.62" y="-5.7" font-family="Helvetica,sans-Serif" font-size="14.00">value = 2.0</text>
</g>
<!-- 2&#45;&gt;4 -->
<g id="edge4" class="edge">
<title>2&#45;&gt;4</title>
<path fill="none" stroke="black" d="M251.42,-88.68C258.41,-79.99 265.95,-70.62 272.98,-61.87"/>
<polygon fill="black" stroke="black" points="276.26,-64.38 279.8,-54.39 270.81,-59.99 276.26,-64.38"/>
</g>
</g>
</svg>
