<?xml version="1.0" encoding="UTF-8" standalone="no"?>
<!DOCTYPE svg PUBLIC "-//W3C//DTD SVG 1.1//EN"
 "http://www.w3.org/Graphics/SVG/1.1/DTD/svg11.dtd">
<!-- Generated by graphviz version 2.50.0 (20220117.2223)
 -->
<!-- Title: Tree Pages: 1 -->
<svg width="252pt" height="165pt"
 viewBox="0.00 0.00 252.00 165.00" xmlns="http://www.w3.org/2000/svg" xmlns:xlink="http://www.w3.org/1999/xlink">
<g id="graph0" class="graph" transform="scale(1 1) rotate(0) translate(4 161)">
<title>Tree</title>
<polygon fill="white" stroke="transparent" points="-4,4 -4,-161 248,-161 248,4 -4,4"/>
<!-- 0 -->
<g id="node1" class="node">
<title>0</title>
<polygon fill="#ffffff" stroke="black" points="178,-157 65,-157 65,-89 178,-89 178,-157"/>
<text text-anchor="middle" x="121.5" y="-141.8" font-family="Helvetica,sans-Serif" font-size="14.00">x1 &lt;= 4.0</text>
<text text-anchor="middle" x="121.5" y="-126.8" font-family="Helvetica,sans-Serif" font-size="14.00">gini = 0.5</text>
<text text-anchor="middle" x="121.5" y="-111.8" font-family="Helvetica,sans-Serif" font-size="14.00">samples = 12</text>
<text text-anchor="middle" x="121.5" y="-96.8" font-family="Helvetica,sans-Serif" font-size="14.00">value = [6, 6]</text>
</g>
<!-- 1 -->
<g id="node2" class="node">
<title>1</title>
<polygon fill="#ea9a61" stroke="black" points="113,-53 0,-53 0,0 113,0 113,-53"/>
<text text-anchor="middle" x="56.5" y="-37.8" font-family="Helvetica,sans-Serif" font-size="14.00">gini = 0.278</text>
<text text-anchor="middle" x="56.5" y="-22.8" font-family="Helvetica,sans-Serif" font-size="14.00">samples = 6</text>
<text text-anchor="middle" x="56.5" y="-7.8" font-family="Helvetica,sans-Serif" font-size="14.00">value = [5, 1]</text>
</g>
<!-- 0&#45;&gt;1 -->
<g id="edge1" class="edge">
<title>0&#45;&gt;1</title>
<path fill="none" stroke="black" d="M98.77,-88.95C92.66,-80.07 86.05,-70.46 79.91,-61.54"/>
<polygon fill="black" stroke="black" points="82.75,-59.49 74.2,-53.24 76.99,-63.46 82.75,-59.49"/>
<text text-anchor="middle" x="69.66" y="-74.12" font-family="Helvetica,sans-Serif" font-size="14.00">True</text>
</g>
<!-- 2 -->
<g id="node3" class="node">
<title>2</title>
<polygon fill="#61b1ea" stroke="black" points="244,-53 131,-53 131,0 244,0 244,-53"/>
<text text-anchor="middle" x="187.5" y="-37.8" font-family="Helvetica,sans-Serif" font-size="14.00">gini = 0.278</text>
<text text-anchor="middle" x="187.5" y="-22.8" font-family="Helvetica,sans-Serif" font-size="14.00">samples = 6</text>
<text text-anchor="middle" x="187.5" y="-7.8" font-family="Helvetica,sans-Serif" font-size="14.00">value = [1, 5]</text>
</g>
<!-- 0&#45;&gt;2 -->
<g id="edge2" class="edge">
<title>0&#45;&gt;2</title>
<path fill="none" stroke="black" d="M144.58,-88.95C150.78,-80.07 157.49,-70.46 163.73,-61.54"/>
<polygon fill="black" stroke="black" points="166.67,-63.44 169.53,-53.24 160.93,-59.43 166.67,-63.44"/>
<text text-anchor="middle" x="173.9" y="-74.15" font-family="Helvetica,sans-Serif" font-size="14.00">False</text>
</g>
</g>
</svg>
