<?xml version="1.0" encoding="UTF-8" standalone="no"?>
<!DOCTYPE svg PUBLIC "-//W3C//DTD SVG 1.1//EN"
 "http://www.w3.org/Graphics/SVG/1.1/DTD/svg11.dtd">
<!-- Generated by graphviz version 8.1.0 (20230707.0739)
 -->
<!-- Title: Tree Pages: 1 -->
<svg width="649pt" height="269pt"
 viewBox="0.00 0.00 648.75 269.00" xmlns="http://www.w3.org/2000/svg" xmlns:xlink="http://www.w3.org/1999/xlink">
<g id="graph0" class="graph" transform="scale(1 1) rotate(0) translate(4 265)">
<title>Tree</title>
<polygon fill="white" stroke="none" points="-4,4 -4,-265 644.75,-265 644.75,4 -4,4"/>
<!-- 0 -->
<g id="node1" class="node">
<title>0</title>
<polygon fill="#f2c09c" stroke="black" points="395.5,-261 245.25,-261 245.25,-193 395.5,-193 395.5,-261"/>
<text text-anchor="middle" x="320.38" y="-243.7" font-family="Helvetica,sans-Serif" font-size="14.00">x &lt;= 3.142</text>
<text text-anchor="middle" x="320.38" y="-228.7" font-family="Helvetica,sans-Serif" font-size="14.00">squared_error = 0.498</text>
<text text-anchor="middle" x="320.38" y="-213.7" font-family="Helvetica,sans-Serif" font-size="14.00">samples = 200</text>
<text text-anchor="middle" x="320.38" y="-198.7" font-family="Helvetica,sans-Serif" font-size="14.00">value = &#45;0.0</text>
</g>
<!-- 1 -->
<g id="node2" class="node">
<title>1</title>
<polygon fill="#e68844" stroke="black" points="311.5,-157 161.25,-157 161.25,-89 311.5,-89 311.5,-157"/>
<text text-anchor="middle" x="236.38" y="-139.7" font-family="Helvetica,sans-Serif" font-size="14.00">x &lt;= 0.489</text>
<text text-anchor="middle" x="236.38" y="-124.7" font-family="Helvetica,sans-Serif" font-size="14.00">squared_error = 0.096</text>
<text text-anchor="middle" x="236.38" y="-109.7" font-family="Helvetica,sans-Serif" font-size="14.00">samples = 100</text>
<text text-anchor="middle" x="236.38" y="-94.7" font-family="Helvetica,sans-Serif" font-size="14.00">value = 0.633</text>
</g>
<!-- 0&#45;&gt;1 -->
<g id="edge1" class="edge">
<title>0&#45;&gt;1</title>
<path fill="none" stroke="black" d="M292.87,-192.6C285.84,-184.06 278.18,-174.77 270.85,-165.86"/>
<polygon fill="black" stroke="black" points="273,-163.97 263.94,-158.47 267.6,-168.42 273,-163.97"/>
<text text-anchor="middle" x="261.53" y="-176.56" font-family="Helvetica,sans-Serif" font-size="14.00">True</text>
</g>
<!-- 4 -->
<g id="node5" class="node">
<title>4</title>
<polygon fill="#fef8f4" stroke="black" points="479.5,-157 329.25,-157 329.25,-89 479.5,-89 479.5,-157"/>
<text text-anchor="middle" x="404.38" y="-139.7" font-family="Helvetica,sans-Serif" font-size="14.00">x &lt;= 5.794</text>
<text text-anchor="middle" x="404.38" y="-124.7" font-family="Helvetica,sans-Serif" font-size="14.00">squared_error = 0.096</text>
<text text-anchor="middle" x="404.38" y="-109.7" font-family="Helvetica,sans-Serif" font-size="14.00">samples = 100</text>
<text text-anchor="middle" x="404.38" y="-94.7" font-family="Helvetica,sans-Serif" font-size="14.00">value = &#45;0.633</text>
</g>
<!-- 0&#45;&gt;4 -->
<g id="edge4" class="edge">
<title>0&#45;&gt;4</title>
<path fill="none" stroke="black" d="M347.88,-192.6C354.91,-184.06 362.57,-174.77 369.9,-165.86"/>
<polygon fill="black" stroke="black" points="373.15,-168.42 376.81,-158.47 367.75,-163.97 373.15,-168.42"/>
<text text-anchor="middle" x="379.22" y="-176.56" font-family="Helvetica,sans-Serif" font-size="14.00">False</text>
</g>
<!-- 2 -->
<g id="node3" class="node">
<title>2</title>
<polygon fill="#eeab7c" stroke="black" points="142.75,-53 0,-53 0,0 142.75,0 142.75,-53"/>
<text text-anchor="middle" x="71.38" y="-35.7" font-family="Helvetica,sans-Serif" font-size="14.00">squared_error = 0.02</text>
<text text-anchor="middle" x="71.38" y="-20.7" font-family="Helvetica,sans-Serif" font-size="14.00">samples = 16</text>
<text text-anchor="middle" x="71.38" y="-5.7" font-family="Helvetica,sans-Serif" font-size="14.00">value = 0.232</text>
</g>
<!-- 1&#45;&gt;2 -->
<g id="edge2" class="edge">
<title>1&#45;&gt;2</title>
<path fill="none" stroke="black" d="M178.2,-88.68C161.14,-78.91 142.54,-68.26 125.73,-58.63"/>
<polygon fill="black" stroke="black" points="128,-55.33 117.59,-53.39 124.52,-61.4 128,-55.33"/>
</g>
<!-- 3 -->
<g id="node4" class="node">
<title>3</title>
<polygon fill="#e58139" stroke="black" points="311.5,-53 161.25,-53 161.25,0 311.5,0 311.5,-53"/>
<text text-anchor="middle" x="236.38" y="-35.7" font-family="Helvetica,sans-Serif" font-size="14.00">squared_error = 0.074</text>
<text text-anchor="middle" x="236.38" y="-20.7" font-family="Helvetica,sans-Serif" font-size="14.00">samples = 84</text>
<text text-anchor="middle" x="236.38" y="-5.7" font-family="Helvetica,sans-Serif" font-size="14.00">value = 0.71</text>
</g>
<!-- 1&#45;&gt;3 -->
<g id="edge3" class="edge">
<title>1&#45;&gt;3</title>
<path fill="none" stroke="black" d="M236.38,-88.68C236.38,-80.81 236.38,-72.37 236.38,-64.35"/>
<polygon fill="black" stroke="black" points="239.88,-64.39 236.38,-54.39 232.88,-64.39 239.88,-64.39"/>
</g>
<!-- 5 -->
<g id="node6" class="node">
<title>5</title>
<polygon fill="#ffffff" stroke="black" points="479.5,-53 329.25,-53 329.25,0 479.5,0 479.5,-53"/>
<text text-anchor="middle" x="404.38" y="-35.7" font-family="Helvetica,sans-Serif" font-size="14.00">squared_error = 0.074</text>
<text text-anchor="middle" x="404.38" y="-20.7" font-family="Helvetica,sans-Serif" font-size="14.00">samples = 84</text>
<text text-anchor="middle" x="404.38" y="-5.7" font-family="Helvetica,sans-Serif" font-size="14.00">value = &#45;0.71</text>
</g>
<!-- 4&#45;&gt;5 -->
<g id="edge5" class="edge">
<title>4&#45;&gt;5</title>
<path fill="none" stroke="black" d="M404.38,-88.68C404.38,-80.81 404.38,-72.37 404.38,-64.35"/>
<polygon fill="black" stroke="black" points="407.88,-64.39 404.38,-54.39 400.88,-64.39 407.88,-64.39"/>
</g>
<!-- 6 -->
<g id="node7" class="node">
<title>6</title>
<polygon fill="#f6d5bc" stroke="black" points="640.75,-53 498,-53 498,0 640.75,0 640.75,-53"/>
<text text-anchor="middle" x="569.38" y="-35.7" font-family="Helvetica,sans-Serif" font-size="14.00">squared_error = 0.02</text>
<text text-anchor="middle" x="569.38" y="-20.7" font-family="Helvetica,sans-Serif" font-size="14.00">samples = 16</text>
<text text-anchor="middle" x="569.38" y="-5.7" font-family="Helvetica,sans-Serif" font-size="14.00">value = &#45;0.232</text>
</g>
<!-- 4&#45;&gt;6 -->
<g id="edge6" class="edge">
<title>4&#45;&gt;6</title>
<path fill="none" stroke="black" d="M462.55,-88.68C479.61,-78.91 498.21,-68.26 515.02,-58.63"/>
<polygon fill="black" stroke="black" points="516.23,-61.4 523.16,-53.39 512.75,-55.33 516.23,-61.4"/>
</g>
</g>
</svg>
