<?xml version="1.0" encoding="UTF-8" standalone="no"?>
<!DOCTYPE svg PUBLIC "-//W3C//DTD SVG 1.1//EN"
 "http://www.w3.org/Graphics/SVG/1.1/DTD/svg11.dtd">
<!-- Generated by graphviz version 2.50.0 (20220117.2223)
 -->
<!-- Title: Tree Pages: 1 -->
<svg width="374pt" height="165pt"
 viewBox="0.00 0.00 374.00 165.00" xmlns="http://www.w3.org/2000/svg" xmlns:xlink="http://www.w3.org/1999/xlink">
<g id="graph0" class="graph" transform="scale(1 1) rotate(0) translate(4 161)">
<title>Tree</title>
<polygon fill="white" stroke="transparent" points="-4,4 -4,-161 370,-161 370,4 -4,4"/>
<!-- 0 -->
<g id="node1" class="node">
<title>0</title>
<polygon fill="#f2c09c" stroke="black" points="270,-157 96,-157 96,-89 270,-89 270,-157"/>
<text text-anchor="middle" x="183" y="-141.8" font-family="Helvetica,sans-Serif" font-size="14.00">x &lt;= 3.142</text>
<text text-anchor="middle" x="183" y="-126.8" font-family="Helvetica,sans-Serif" font-size="14.00">squared_error = 0.498</text>
<text text-anchor="middle" x="183" y="-111.8" font-family="Helvetica,sans-Serif" font-size="14.00">samples = 200</text>
<text text-anchor="middle" x="183" y="-96.8" font-family="Helvetica,sans-Serif" font-size="14.00">value = &#45;0.0</text>
</g>
<!-- 1 -->
<g id="node2" class="node">
<title>1</title>
<polygon fill="#e58139" stroke="black" points="174,-53 0,-53 0,0 174,0 174,-53"/>
<text text-anchor="middle" x="87" y="-37.8" font-family="Helvetica,sans-Serif" font-size="14.00">squared_error = 0.096</text>
<text text-anchor="middle" x="87" y="-22.8" font-family="Helvetica,sans-Serif" font-size="14.00">samples = 100</text>
<text text-anchor="middle" x="87" y="-7.8" font-family="Helvetica,sans-Serif" font-size="14.00">value = 0.633</text>
</g>
<!-- 0&#45;&gt;1 -->
<g id="edge1" class="edge">
<title>0&#45;&gt;1</title>
<path fill="none" stroke="black" d="M149.42,-88.95C140.04,-79.71 129.84,-69.67 120.46,-60.44"/>
<polygon fill="black" stroke="black" points="122.73,-57.76 113.15,-53.24 117.82,-62.75 122.73,-57.76"/>
<text text-anchor="middle" x="113.34" y="-74.54" font-family="Helvetica,sans-Serif" font-size="14.00">True</text>
</g>
<!-- 2 -->
<g id="node3" class="node">
<title>2</title>
<polygon fill="#ffffff" stroke="black" points="366,-53 192,-53 192,0 366,0 366,-53"/>
<text text-anchor="middle" x="279" y="-37.8" font-family="Helvetica,sans-Serif" font-size="14.00">squared_error = 0.096</text>
<text text-anchor="middle" x="279" y="-22.8" font-family="Helvetica,sans-Serif" font-size="14.00">samples = 100</text>
<text text-anchor="middle" x="279" y="-7.8" font-family="Helvetica,sans-Serif" font-size="14.00">value = &#45;0.633</text>
</g>
<!-- 0&#45;&gt;2 -->
<g id="edge2" class="edge">
<title>0&#45;&gt;2</title>
<path fill="none" stroke="black" d="M216.58,-88.95C225.96,-79.71 236.16,-69.67 245.54,-60.44"/>
<polygon fill="black" stroke="black" points="248.18,-62.75 252.85,-53.24 243.27,-57.76 248.18,-62.75"/>
<text text-anchor="middle" x="252.66" y="-74.54" font-family="Helvetica,sans-Serif" font-size="14.00">False</text>
</g>
</g>
</svg>
