<?xml version="1.0" encoding="UTF-8" standalone="no"?>
<!DOCTYPE svg PUBLIC "-//W3C//DTD SVG 1.1//EN"
 "http://www.w3.org/Graphics/SVG/1.1/DTD/svg11.dtd">
<!-- Generated by graphviz version 2.50.0 (20220117.2223)
 -->
<!-- Title: Tree Pages: 1 -->
<svg width="514pt" height="373pt"
 viewBox="0.00 0.00 514.00 373.00" xmlns="http://www.w3.org/2000/svg" xmlns:xlink="http://www.w3.org/1999/xlink">
<g id="graph0" class="graph" transform="scale(1 1) rotate(0) translate(4 369)">
<title>Tree</title>
<polygon fill="white" stroke="transparent" points="-4,4 -4,-369 510,-369 510,4 -4,4"/>
<!-- 0 -->
<g id="node1" class="node">
<title>0</title>
<polygon fill="#ffffff" stroke="black" points="309,-365 196,-365 196,-297 309,-297 309,-365"/>
<text text-anchor="middle" x="252.5" y="-349.8" font-family="Helvetica,sans-Serif" font-size="14.00">x1 &lt;= 4.0</text>
<text text-anchor="middle" x="252.5" y="-334.8" font-family="Helvetica,sans-Serif" font-size="14.00">gini = 0.5</text>
<text text-anchor="middle" x="252.5" y="-319.8" font-family="Helvetica,sans-Serif" font-size="14.00">samples = 12</text>
<text text-anchor="middle" x="252.5" y="-304.8" font-family="Helvetica,sans-Serif" font-size="14.00">value = [6, 6]</text>
</g>
<!-- 1 -->
<g id="node2" class="node">
<title>1</title>
<polygon fill="#ea9a61" stroke="black" points="244,-261 131,-261 131,-193 244,-193 244,-261"/>
<text text-anchor="middle" x="187.5" y="-245.8" font-family="Helvetica,sans-Serif" font-size="14.00">x2 &lt;= 1.5</text>
<text text-anchor="middle" x="187.5" y="-230.8" font-family="Helvetica,sans-Serif" font-size="14.00">gini = 0.278</text>
<text text-anchor="middle" x="187.5" y="-215.8" font-family="Helvetica,sans-Serif" font-size="14.00">samples = 6</text>
<text text-anchor="middle" x="187.5" y="-200.8" font-family="Helvetica,sans-Serif" font-size="14.00">value = [5, 1]</text>
</g>
<!-- 0&#45;&gt;1 -->
<g id="edge1" class="edge">
<title>0&#45;&gt;1</title>
<path fill="none" stroke="black" d="M231.4,-296.88C225.89,-288.24 219.88,-278.82 214.13,-269.79"/>
<polygon fill="black" stroke="black" points="217.05,-267.85 208.72,-261.3 211.14,-271.61 217.05,-267.85"/>
<text text-anchor="middle" x="203.31" y="-282.01" font-family="Helvetica,sans-Serif" font-size="14.00">True</text>
</g>
<!-- 6 -->
<g id="node7" class="node">
<title>6</title>
<polygon fill="#61b1ea" stroke="black" points="375,-261 262,-261 262,-193 375,-193 375,-261"/>
<text text-anchor="middle" x="318.5" y="-245.8" font-family="Helvetica,sans-Serif" font-size="14.00">x1 &lt;= 6.5</text>
<text text-anchor="middle" x="318.5" y="-230.8" font-family="Helvetica,sans-Serif" font-size="14.00">gini = 0.278</text>
<text text-anchor="middle" x="318.5" y="-215.8" font-family="Helvetica,sans-Serif" font-size="14.00">samples = 6</text>
<text text-anchor="middle" x="318.5" y="-200.8" font-family="Helvetica,sans-Serif" font-size="14.00">value = [1, 5]</text>
</g>
<!-- 0&#45;&gt;6 -->
<g id="edge6" class="edge">
<title>0&#45;&gt;6</title>
<path fill="none" stroke="black" d="M273.93,-296.88C279.52,-288.24 285.62,-278.82 291.46,-269.79"/>
<polygon fill="black" stroke="black" points="294.46,-271.6 296.95,-261.3 288.58,-267.79 294.46,-271.6"/>
<text text-anchor="middle" x="302.19" y="-282.04" font-family="Helvetica,sans-Serif" font-size="14.00">False</text>
</g>
<!-- 2 -->
<g id="node3" class="node">
<title>2</title>
<polygon fill="#e58139" stroke="black" points="113,-149.5 0,-149.5 0,-96.5 113,-96.5 113,-149.5"/>
<text text-anchor="middle" x="56.5" y="-134.3" font-family="Helvetica,sans-Serif" font-size="14.00">gini = 0.0</text>
<text text-anchor="middle" x="56.5" y="-119.3" font-family="Helvetica,sans-Serif" font-size="14.00">samples = 3</text>
<text text-anchor="middle" x="56.5" y="-104.3" font-family="Helvetica,sans-Serif" font-size="14.00">value = [3, 0]</text>
</g>
<!-- 1&#45;&gt;2 -->
<g id="edge2" class="edge">
<title>1&#45;&gt;2</title>
<path fill="none" stroke="black" d="M144.97,-192.88C129.71,-181.01 112.56,-167.65 97.44,-155.88"/>
<polygon fill="black" stroke="black" points="99.32,-152.9 89.28,-149.52 95.02,-158.43 99.32,-152.9"/>
</g>
<!-- 3 -->
<g id="node4" class="node">
<title>3</title>
<polygon fill="#f2c09c" stroke="black" points="244,-157 131,-157 131,-89 244,-89 244,-157"/>
<text text-anchor="middle" x="187.5" y="-141.8" font-family="Helvetica,sans-Serif" font-size="14.00">x1 &lt;= 1.5</text>
<text text-anchor="middle" x="187.5" y="-126.8" font-family="Helvetica,sans-Serif" font-size="14.00">gini = 0.444</text>
<text text-anchor="middle" x="187.5" y="-111.8" font-family="Helvetica,sans-Serif" font-size="14.00">samples = 3</text>
<text text-anchor="middle" x="187.5" y="-96.8" font-family="Helvetica,sans-Serif" font-size="14.00">value = [2, 1]</text>
</g>
<!-- 1&#45;&gt;3 -->
<g id="edge3" class="edge">
<title>1&#45;&gt;3</title>
<path fill="none" stroke="black" d="M187.5,-192.88C187.5,-184.78 187.5,-175.98 187.5,-167.47"/>
<polygon fill="black" stroke="black" points="191,-167.3 187.5,-157.3 184,-167.3 191,-167.3"/>
</g>
<!-- 4 -->
<g id="node5" class="node">
<title>4</title>
<polygon fill="#e58139" stroke="black" points="113,-53 0,-53 0,0 113,0 113,-53"/>
<text text-anchor="middle" x="56.5" y="-37.8" font-family="Helvetica,sans-Serif" font-size="14.00">gini = 0.0</text>
<text text-anchor="middle" x="56.5" y="-22.8" font-family="Helvetica,sans-Serif" font-size="14.00">samples = 2</text>
<text text-anchor="middle" x="56.5" y="-7.8" font-family="Helvetica,sans-Serif" font-size="14.00">value = [2, 0]</text>
</g>
<!-- 3&#45;&gt;4 -->
<g id="edge4" class="edge">
<title>3&#45;&gt;4</title>
<path fill="none" stroke="black" d="M141.68,-88.95C128.37,-79.34 113.86,-68.87 100.64,-59.34"/>
<polygon fill="black" stroke="black" points="102.34,-56.25 92.18,-53.24 98.24,-61.93 102.34,-56.25"/>
</g>
<!-- 5 -->
<g id="node6" class="node">
<title>5</title>
<polygon fill="#399de5" stroke="black" points="244,-53 131,-53 131,0 244,0 244,-53"/>
<text text-anchor="middle" x="187.5" y="-37.8" font-family="Helvetica,sans-Serif" font-size="14.00">gini = 0.0</text>
<text text-anchor="middle" x="187.5" y="-22.8" font-family="Helvetica,sans-Serif" font-size="14.00">samples = 1</text>
<text text-anchor="middle" x="187.5" y="-7.8" font-family="Helvetica,sans-Serif" font-size="14.00">value = [0, 1]</text>
</g>
<!-- 3&#45;&gt;5 -->
<g id="edge5" class="edge">
<title>3&#45;&gt;5</title>
<path fill="none" stroke="black" d="M187.5,-88.95C187.5,-80.72 187.5,-71.85 187.5,-63.48"/>
<polygon fill="black" stroke="black" points="191,-63.24 187.5,-53.24 184,-63.24 191,-63.24"/>
</g>
<!-- 7 -->
<g id="node8" class="node">
<title>7</title>
<polygon fill="#9ccef2" stroke="black" points="375,-157 262,-157 262,-89 375,-89 375,-157"/>
<text text-anchor="middle" x="318.5" y="-141.8" font-family="Helvetica,sans-Serif" font-size="14.00">x2 &lt;= 1.5</text>
<text text-anchor="middle" x="318.5" y="-126.8" font-family="Helvetica,sans-Serif" font-size="14.00">gini = 0.444</text>
<text text-anchor="middle" x="318.5" y="-111.8" font-family="Helvetica,sans-Serif" font-size="14.00">samples = 3</text>
<text text-anchor="middle" x="318.5" y="-96.8" font-family="Helvetica,sans-Serif" font-size="14.00">value = [1, 2]</text>
</g>
<!-- 6&#45;&gt;7 -->
<g id="edge7" class="edge">
<title>6&#45;&gt;7</title>
<path fill="none" stroke="black" d="M318.5,-192.88C318.5,-184.78 318.5,-175.98 318.5,-167.47"/>
<polygon fill="black" stroke="black" points="322,-167.3 318.5,-157.3 315,-167.3 322,-167.3"/>
</g>
<!-- 10 -->
<g id="node11" class="node">
<title>10</title>
<polygon fill="#399de5" stroke="black" points="506,-149.5 393,-149.5 393,-96.5 506,-96.5 506,-149.5"/>
<text text-anchor="middle" x="449.5" y="-134.3" font-family="Helvetica,sans-Serif" font-size="14.00">gini = 0.0</text>
<text text-anchor="middle" x="449.5" y="-119.3" font-family="Helvetica,sans-Serif" font-size="14.00">samples = 3</text>
<text text-anchor="middle" x="449.5" y="-104.3" font-family="Helvetica,sans-Serif" font-size="14.00">value = [0, 3]</text>
</g>
<!-- 6&#45;&gt;10 -->
<g id="edge10" class="edge">
<title>6&#45;&gt;10</title>
<path fill="none" stroke="black" d="M361.03,-192.88C376.29,-181.01 393.44,-167.65 408.56,-155.88"/>
<polygon fill="black" stroke="black" points="410.98,-158.43 416.72,-149.52 406.68,-152.9 410.98,-158.43"/>
</g>
<!-- 8 -->
<g id="node9" class="node">
<title>8</title>
<polygon fill="#399de5" stroke="black" points="375,-53 262,-53 262,0 375,0 375,-53"/>
<text text-anchor="middle" x="318.5" y="-37.8" font-family="Helvetica,sans-Serif" font-size="14.00">gini = 0.0</text>
<text text-anchor="middle" x="318.5" y="-22.8" font-family="Helvetica,sans-Serif" font-size="14.00">samples = 2</text>
<text text-anchor="middle" x="318.5" y="-7.8" font-family="Helvetica,sans-Serif" font-size="14.00">value = [0, 2]</text>
</g>
<!-- 7&#45;&gt;8 -->
<g id="edge8" class="edge">
<title>7&#45;&gt;8</title>
<path fill="none" stroke="black" d="M318.5,-88.95C318.5,-80.72 318.5,-71.85 318.5,-63.48"/>
<polygon fill="black" stroke="black" points="322,-63.24 318.5,-53.24 315,-63.24 322,-63.24"/>
</g>
<!-- 9 -->
<g id="node10" class="node">
<title>9</title>
<polygon fill="#e58139" stroke="black" points="506,-53 393,-53 393,0 506,0 506,-53"/>
<text text-anchor="middle" x="449.5" y="-37.8" font-family="Helvetica,sans-Serif" font-size="14.00">gini = 0.0</text>
<text text-anchor="middle" x="449.5" y="-22.8" font-family="Helvetica,sans-Serif" font-size="14.00">samples = 1</text>
<text text-anchor="middle" x="449.5" y="-7.8" font-family="Helvetica,sans-Serif" font-size="14.00">value = [1, 0]</text>
</g>
<!-- 7&#45;&gt;9 -->
<g id="edge9" class="edge">
<title>7&#45;&gt;9</title>
<path fill="none" stroke="black" d="M364.32,-88.95C377.63,-79.34 392.14,-68.87 405.36,-59.34"/>
<polygon fill="black" stroke="black" points="407.76,-61.93 413.82,-53.24 403.66,-56.25 407.76,-61.93"/>
</g>
</g>
</svg>
