<?xml version="1.0" encoding="UTF-8" standalone="no"?>
<!DOCTYPE svg PUBLIC "-//W3C//DTD SVG 1.1//EN"
 "http://www.w3.org/Graphics/SVG/1.1/DTD/svg11.dtd">
<!-- Generated by graphviz version 8.1.0 (20230707.0739)
 -->
<!-- Title: Tree Pages: 1 -->
<svg width="326pt" height="165pt"
 viewBox="0.00 0.00 326.25 165.00" xmlns="http://www.w3.org/2000/svg" xmlns:xlink="http://www.w3.org/1999/xlink">
<g id="graph0" class="graph" transform="scale(1 1) rotate(0) translate(4 161)">
<title>Tree</title>
<polygon fill="white" stroke="none" points="-4,4 -4,-161 322.25,-161 322.25,4 -4,4"/>
<!-- 0 -->
<g id="node1" class="node">
<title>0</title>
<polygon fill="#f2c09c" stroke="black" points="234.25,-157 84,-157 84,-89 234.25,-89 234.25,-157"/>
<text text-anchor="middle" x="159.12" y="-139.7" font-family="Helvetica,sans-Serif" font-size="14.00">x &lt;= 3.142</text>
<text text-anchor="middle" x="159.12" y="-124.7" font-family="Helvetica,sans-Serif" font-size="14.00">squared_error = 0.498</text>
<text text-anchor="middle" x="159.12" y="-109.7" font-family="Helvetica,sans-Serif" font-size="14.00">samples = 200</text>
<text text-anchor="middle" x="159.12" y="-94.7" font-family="Helvetica,sans-Serif" font-size="14.00">value = &#45;0.0</text>
</g>
<!-- 1 -->
<g id="node2" class="node">
<title>1</title>
<polygon fill="#e58139" stroke="black" points="150.25,-53 0,-53 0,0 150.25,0 150.25,-53"/>
<text text-anchor="middle" x="75.12" y="-35.7" font-family="Helvetica,sans-Serif" font-size="14.00">squared_error = 0.096</text>
<text text-anchor="middle" x="75.12" y="-20.7" font-family="Helvetica,sans-Serif" font-size="14.00">samples = 100</text>
<text text-anchor="middle" x="75.12" y="-5.7" font-family="Helvetica,sans-Serif" font-size="14.00">value = 0.633</text>
</g>
<!-- 0&#45;&gt;1 -->
<g id="edge1" class="edge">
<title>0&#45;&gt;1</title>
<path fill="none" stroke="black" d="M129.51,-88.68C121.71,-79.9 113.28,-70.42 105.44,-61.6"/>
<polygon fill="black" stroke="black" points="108.4,-59.54 99.14,-54.39 103.17,-64.19 108.4,-59.54"/>
<text text-anchor="middle" x="96.67" y="-72.55" font-family="Helvetica,sans-Serif" font-size="14.00">True</text>
</g>
<!-- 2 -->
<g id="node3" class="node">
<title>2</title>
<polygon fill="#ffffff" stroke="black" points="318.25,-53 168,-53 168,0 318.25,0 318.25,-53"/>
<text text-anchor="middle" x="243.12" y="-35.7" font-family="Helvetica,sans-Serif" font-size="14.00">squared_error = 0.096</text>
<text text-anchor="middle" x="243.12" y="-20.7" font-family="Helvetica,sans-Serif" font-size="14.00">samples = 100</text>
<text text-anchor="middle" x="243.12" y="-5.7" font-family="Helvetica,sans-Serif" font-size="14.00">value = &#45;0.633</text>
</g>
<!-- 0&#45;&gt;2 -->
<g id="edge2" class="edge">
<title>0&#45;&gt;2</title>
<path fill="none" stroke="black" d="M188.74,-88.68C196.54,-79.9 204.97,-70.42 212.81,-61.6"/>
<polygon fill="black" stroke="black" points="215.08,-64.19 219.11,-54.39 209.85,-59.54 215.08,-64.19"/>
<text text-anchor="middle" x="221.58" y="-72.55" font-family="Helvetica,sans-Serif" font-size="14.00">False</text>
</g>
</g>
</svg>
