<?xml version="1.0" encoding="UTF-8" standalone="no"?>
<!DOCTYPE svg PUBLIC "-//W3C//DTD SVG 1.1//EN"
 "http://www.w3.org/Graphics/SVG/1.1/DTD/svg11.dtd">
<!-- Generated by graphviz version 2.50.0 (20220117.2223)
 -->
<!-- Title: Tree Pages: 1 -->
<svg width="348pt" height="165pt"
 viewBox="0.00 0.00 347.50 165.00" xmlns="http://www.w3.org/2000/svg" xmlns:xlink="http://www.w3.org/1999/xlink">
<g id="graph0" class="graph" transform="scale(1 1) rotate(0) translate(4 161)">
<title>Tree</title>
<polygon fill="white" stroke="transparent" points="-4,4 -4,-161 343.5,-161 343.5,4 -4,4"/>
<!-- 0 -->
<g id="node1" class="node">
<title>0</title>
<polygon fill="#eeab7b" stroke="black" points="254,-157 80,-157 80,-89 254,-89 254,-157"/>
<text text-anchor="middle" x="167" y="-141.8" font-family="Helvetica,sans-Serif" font-size="14.00">x &lt;= 2.5</text>
<text text-anchor="middle" x="167" y="-126.8" font-family="Helvetica,sans-Serif" font-size="14.00">squared_error = 0.667</text>
<text text-anchor="middle" x="167" y="-111.8" font-family="Helvetica,sans-Serif" font-size="14.00">samples = 6</text>
<text text-anchor="middle" x="167" y="-96.8" font-family="Helvetica,sans-Serif" font-size="14.00">value = 1.0</text>
</g>
<!-- 1 -->
<g id="node2" class="node">
<title>1</title>
<polygon fill="#ffffff" stroke="black" points="156,-53 0,-53 0,0 156,0 156,-53"/>
<text text-anchor="middle" x="78" y="-37.8" font-family="Helvetica,sans-Serif" font-size="14.00">squared_error = 0.0</text>
<text text-anchor="middle" x="78" y="-22.8" font-family="Helvetica,sans-Serif" font-size="14.00">samples = 2</text>
<text text-anchor="middle" x="78" y="-7.8" font-family="Helvetica,sans-Serif" font-size="14.00">value = 0.0</text>
</g>
<!-- 0&#45;&gt;1 -->
<g id="edge1" class="edge">
<title>0&#45;&gt;1</title>
<path fill="none" stroke="black" d="M135.87,-88.95C127.26,-79.8 117.9,-69.87 109.28,-60.71"/>
<polygon fill="black" stroke="black" points="111.64,-58.12 102.24,-53.24 106.55,-62.92 111.64,-58.12"/>
<text text-anchor="middle" x="101.49" y="-74.53" font-family="Helvetica,sans-Serif" font-size="14.00">True</text>
</g>
<!-- 2 -->
<g id="node3" class="node">
<title>2</title>
<polygon fill="#e58139" stroke="black" points="339.5,-53 174.5,-53 174.5,0 339.5,0 339.5,-53"/>
<text text-anchor="middle" x="257" y="-37.8" font-family="Helvetica,sans-Serif" font-size="14.00">squared_error = 0.25</text>
<text text-anchor="middle" x="257" y="-22.8" font-family="Helvetica,sans-Serif" font-size="14.00">samples = 4</text>
<text text-anchor="middle" x="257" y="-7.8" font-family="Helvetica,sans-Serif" font-size="14.00">value = 1.5</text>
</g>
<!-- 0&#45;&gt;2 -->
<g id="edge2" class="edge">
<title>0&#45;&gt;2</title>
<path fill="none" stroke="black" d="M198.48,-88.95C207.19,-79.8 216.65,-69.87 225.37,-60.71"/>
<polygon fill="black" stroke="black" points="228.13,-62.89 232.49,-53.24 223.06,-58.06 228.13,-62.89"/>
<text text-anchor="middle" x="233.1" y="-74.53" font-family="Helvetica,sans-Serif" font-size="14.00">False</text>
</g>
</g>
</svg>
