<svg xmlns="http://www.w3.org/2000/svg" xmlns:xlink="http://www.w3.org/1999/xlink" width= "769.5149476822928" height="97.6" viewBox="-40 -44.8 769.5149476822928 97.6">
<line x1="0" y1="15.2" x2="0" y2="-16.8" stroke-width="1" stroke-dasharray="none" stroke="rgb(0, 0, 0)"/>
<line x1="1.0" y1="15.2" x2="1.0" y2="-16.8" stroke-width="1" stroke-dasharray="1" stroke="rgb(0, 0, 0)"/>
<line x1="2.771281292110204" y1="16.8" x2="2.771281292110204" y2="-15.2" stroke-width="1" stroke-dasharray="none" stroke="rgb(0, 0, 0)"/>
<line x1="3.771281292110204" y1="16.8" x2="3.771281292110204" y2="-15.2" stroke-width="1" stroke-dasharray="none" stroke="rgb(0, 0, 0)"/>
<line x1="0" y1="15.2" x2="2.771281292110204" y2="16.8" stroke-width="1" stroke-dasharray="none" stroke="rgb(0, 0, 0)"/>
<line x1="0" y1="-16.8" x2="2.771281292110204" y2="-15.2" stroke-width="1" stroke-dasharray="none" stroke="rgb(0, 0, 0)"/>
<line x1="1.0" y1="15.2" x2="3.771281292110204" y2="16.8" stroke-width="1" stroke-dasharray="1" stroke="rgb(0, 0, 0)"/>
<line x1="1.0" y1="-16.8" x2="3.771281292110204" y2="-15.2" stroke-width="1" stroke-dasharray="none" stroke="rgb(0, 0, 0)"/>
<line x1="0" y1="15.2" x2="1.0" y2="15.2" stroke-width="1" stroke-dasharray="1" stroke="rgb(0, 0, 0)"/>
<line x1="2.771281292110204" y1="16.8" x2="3.771281292110204" y2="16.8" stroke-width="1" stroke-dasharray="none" stroke="rgb(0, 0, 0)"/>
<line x1="0" y1="-16.8" x2="1.0" y2="-16.8" stroke-width="1" stroke-dasharray="none" stroke="rgb(0, 0, 0)"/>
<line x1="2.771281292110204" y1="-15.2" x2="3.771281292110204" y2="-15.2" stroke-width="1" stroke-dasharray="none" stroke="rgb(0, 0, 0)"/>
<text x="1.885640646055102" y="-26.8" font-family="arial" font-size="8px" text-anchor="middle" fill="rgb(0, 0, 0)">32x32x1</text>
<line x1="53.7712812921102" y1="14.25" x2="53.7712812921102" y2="-15.75" stroke-width="1" stroke-dasharray="none" stroke="rgb(0, 0, 0)"/>
<line x1="55.81895380318942" y1="14.25" x2="55.81895380318942" y2="-15.75" stroke-width="1" stroke-dasharray="1" stroke="rgb(0, 0, 0)"/>
<line x1="56.36935750346352" y1="15.75" x2="56.36935750346352" y2="-14.25" stroke-width="1" stroke-dasharray="none" stroke="rgb(0, 0, 0)"/>
<line x1="58.41703001454274" y1="15.75" x2="58.41703001454274" y2="-14.25" stroke-width="1" stroke-dasharray="none" stroke="rgb(0, 0, 0)"/>
<line x1="53.7712812921102" y1="14.25" x2="56.36935750346352" y2="15.75" stroke-width="1" stroke-dasharray="none" stroke="rgb(0, 0, 0)"/>
<line x1="53.7712812921102" y1="-15.75" x2="56.36935750346352" y2="-14.25" stroke-width="1" stroke-dasharray="none" stroke="rgb(0, 0, 0)"/>
<line x1="55.81895380318942" y1="14.25" x2="58.41703001454274" y2="15.75" stroke-width="1" stroke-dasharray="1" stroke="rgb(0, 0, 0)"/>
<line x1="55.81895380318942" y1="-15.75" x2="58.41703001454274" y2="-14.25" stroke-width="1" stroke-dasharray="none" stroke="rgb(0, 0, 0)"/>
<line x1="53.7712812921102" y1="14.25" x2="55.81895380318942" y2="14.25" stroke-width="1" stroke-dasharray="1" stroke="rgb(0, 0, 0)"/>
<line x1="56.36935750346352" y1="15.75" x2="58.41703001454274" y2="15.75" stroke-width="1" stroke-dasharray="none" stroke="rgb(0, 0, 0)"/>
<line x1="53.7712812921102" y1="-15.75" x2="55.81895380318942" y2="-15.75" stroke-width="1" stroke-dasharray="none" stroke="rgb(0, 0, 0)"/>
<line x1="56.36935750346352" y1="-14.25" x2="58.41703001454274" y2="-14.25" stroke-width="1" stroke-dasharray="none" stroke="rgb(0, 0, 0)"/>
<text x="56.09415565332647" y="-25.75" font-family="arial" font-size="8px" text-anchor="middle" fill="rgb(0, 0, 0)">30x30x6</text>
<line x1="108.41703001454275" y1="6.65" x2="108.41703001454275" y2="-7.35" stroke-width="1" stroke-dasharray="none" stroke="rgb(0, 0, 0)"/>
<line x1="110.46470252562196" y1="6.65" x2="110.46470252562196" y2="-7.35" stroke-width="1" stroke-dasharray="1" stroke="rgb(0, 0, 0)"/>
<line x1="109.62946557984095" y1="7.3500000000000005" x2="109.62946557984095" y2="-6.65" stroke-width="1" stroke-dasharray="none" stroke="rgb(0, 0, 0)"/>
<line x1="111.67713809092018" y1="7.3500000000000005" x2="111.67713809092018" y2="-6.65" stroke-width="1" stroke-dasharray="none" stroke="rgb(0, 0, 0)"/>
<line x1="108.41703001454275" y1="6.65" x2="109.62946557984095" y2="7.3500000000000005" stroke-width="1" stroke-dasharray="none" stroke="rgb(0, 0, 0)"/>
<line x1="108.41703001454275" y1="-7.35" x2="109.62946557984095" y2="-6.65" stroke-width="1" stroke-dasharray="none" stroke="rgb(0, 0, 0)"/>
<line x1="110.46470252562196" y1="6.65" x2="111.67713809092018" y2="7.3500000000000005" stroke-width="1" stroke-dasharray="1" stroke="rgb(0, 0, 0)"/>
<line x1="110.46470252562196" y1="-7.35" x2="111.67713809092018" y2="-6.65" stroke-width="1" stroke-dasharray="none" stroke="rgb(0, 0, 0)"/>
<line x1="108.41703001454275" y1="6.65" x2="110.46470252562196" y2="6.65" stroke-width="1" stroke-dasharray="1" stroke="rgb(0, 0, 0)"/>
<line x1="109.62946557984095" y1="7.3500000000000005" x2="111.67713809092018" y2="7.3500000000000005" stroke-width="1" stroke-dasharray="none" stroke="rgb(0, 0, 0)"/>
<line x1="108.41703001454275" y1="-7.35" x2="110.46470252562196" y2="-7.35" stroke-width="1" stroke-dasharray="none" stroke="rgb(0, 0, 0)"/>
<line x1="109.62946557984095" y1="-6.65" x2="111.67713809092018" y2="-6.65" stroke-width="1" stroke-dasharray="none" stroke="rgb(0, 0, 0)"/>
<text x="110.04708405273146" y="-17.35" font-family="arial" font-size="8px" text-anchor="middle" fill="rgb(0, 0, 0)">14x14x6</text>
<line x1="161.67713809092015" y1="6.65" x2="161.67713809092015" y2="-7.35" stroke-width="1" stroke-dasharray="none" stroke="rgb(0, 0, 0)"/>
<line x1="170.86672493089642" y1="6.65" x2="170.86672493089642" y2="-7.35" stroke-width="1" stroke-dasharray="1" stroke="rgb(0, 0, 0)"/>
<line x1="162.88957365621837" y1="7.3500000000000005" x2="162.88957365621837" y2="-6.65" stroke-width="1" stroke-dasharray="none" stroke="rgb(0, 0, 0)"/>
<line x1="172.07916049619465" y1="7.3500000000000005" x2="172.07916049619465" y2="-6.65" stroke-width="1" stroke-dasharray="none" stroke="rgb(0, 0, 0)"/>
<line x1="161.67713809092015" y1="6.65" x2="162.88957365621837" y2="7.3500000000000005" stroke-width="1" stroke-dasharray="none" stroke="rgb(0, 0, 0)"/>
<line x1="161.67713809092015" y1="-7.35" x2="162.88957365621837" y2="-6.65" stroke-width="1" stroke-dasharray="none" stroke="rgb(0, 0, 0)"/>
<line x1="170.86672493089642" y1="6.65" x2="172.07916049619465" y2="7.3500000000000005" stroke-width="1" stroke-dasharray="1" stroke="rgb(0, 0, 0)"/>
<line x1="170.86672493089642" y1="-7.35" x2="172.07916049619465" y2="-6.65" stroke-width="1" stroke-dasharray="none" stroke="rgb(0, 0, 0)"/>
<line x1="161.67713809092015" y1="6.65" x2="170.86672493089642" y2="6.65" stroke-width="1" stroke-dasharray="1" stroke="rgb(0, 0, 0)"/>
<line x1="162.88957365621837" y1="7.3500000000000005" x2="172.07916049619465" y2="7.3500000000000005" stroke-width="1" stroke-dasharray="none" stroke="rgb(0, 0, 0)"/>
<line x1="161.67713809092015" y1="-7.35" x2="170.86672493089642" y2="-7.35" stroke-width="1" stroke-dasharray="none" stroke="rgb(0, 0, 0)"/>
<line x1="162.88957365621837" y1="-6.65" x2="172.07916049619465" y2="-6.65" stroke-width="1" stroke-dasharray="none" stroke="rgb(0, 0, 0)"/>
<text x="166.87814929355739" y="-17.35" font-family="arial" font-size="8px" text-anchor="middle" fill="rgb(0, 0, 0)">14x14x256</text>
<line x1="222.07916049619465" y1="2.85" x2="222.07916049619465" y2="-3.15" stroke-width="1" stroke-dasharray="none" stroke="rgb(0, 0, 0)"/>
<line x1="231.26874733617092" y1="2.85" x2="231.26874733617092" y2="-3.15" stroke-width="1" stroke-dasharray="1" stroke="rgb(0, 0, 0)"/>
<line x1="222.59877573846532" y1="3.15" x2="222.59877573846532" y2="-2.85" stroke-width="1" stroke-dasharray="none" stroke="rgb(0, 0, 0)"/>
<line x1="231.7883625784416" y1="3.15" x2="231.7883625784416" y2="-2.85" stroke-width="1" stroke-dasharray="none" stroke="rgb(0, 0, 0)"/>
<line x1="222.07916049619465" y1="2.85" x2="222.59877573846532" y2="3.15" stroke-width="1" stroke-dasharray="none" stroke="rgb(0, 0, 0)"/>
<line x1="222.07916049619465" y1="-3.15" x2="222.59877573846532" y2="-2.85" stroke-width="1" stroke-dasharray="none" stroke="rgb(0, 0, 0)"/>
<line x1="231.26874733617092" y1="2.85" x2="231.7883625784416" y2="3.15" stroke-width="1" stroke-dasharray="1" stroke="rgb(0, 0, 0)"/>
<line x1="231.26874733617092" y1="-3.15" x2="231.7883625784416" y2="-2.85" stroke-width="1" stroke-dasharray="none" stroke="rgb(0, 0, 0)"/>
<line x1="222.07916049619465" y1="2.85" x2="231.26874733617092" y2="2.85" stroke-width="1" stroke-dasharray="1" stroke="rgb(0, 0, 0)"/>
<line x1="222.59877573846532" y1="3.15" x2="231.7883625784416" y2="3.15" stroke-width="1" stroke-dasharray="none" stroke="rgb(0, 0, 0)"/>
<line x1="222.07916049619465" y1="-3.15" x2="231.26874733617092" y2="-3.15" stroke-width="1" stroke-dasharray="none" stroke="rgb(0, 0, 0)"/>
<line x1="222.59877573846532" y1="-2.85" x2="231.7883625784416" y2="-2.85" stroke-width="1" stroke-dasharray="none" stroke="rgb(0, 0, 0)"/>
<text x="226.9337615373181" y="-13.15" font-family="arial" font-size="8px" text-anchor="middle" fill="rgb(0, 0, 0)">6x6x256</text>
<line x1="281.7883625784416" y1="2.85" x2="281.7883625784416" y2="-3.15" stroke-width="1" stroke-dasharray="none" stroke="rgb(0, 0, 0)"/>
<line x1="292.5960428866065" y1="2.85" x2="292.5960428866065" y2="-3.15" stroke-width="1" stroke-dasharray="1" stroke="rgb(0, 0, 0)"/>
<line x1="282.30797782071227" y1="3.15" x2="282.30797782071227" y2="-2.85" stroke-width="1" stroke-dasharray="none" stroke="rgb(0, 0, 0)"/>
<line x1="293.11565812887716" y1="3.15" x2="293.11565812887716" y2="-2.85" stroke-width="1" stroke-dasharray="none" stroke="rgb(0, 0, 0)"/>
<line x1="281.7883625784416" y1="2.85" x2="282.30797782071227" y2="3.15" stroke-width="1" stroke-dasharray="none" stroke="rgb(0, 0, 0)"/>
<line x1="281.7883625784416" y1="-3.15" x2="282.30797782071227" y2="-2.85" stroke-width="1" stroke-dasharray="none" stroke="rgb(0, 0, 0)"/>
<line x1="292.5960428866065" y1="2.85" x2="293.11565812887716" y2="3.15" stroke-width="1" stroke-dasharray="1" stroke="rgb(0, 0, 0)"/>
<line x1="292.5960428866065" y1="-3.15" x2="293.11565812887716" y2="-2.85" stroke-width="1" stroke-dasharray="none" stroke="rgb(0, 0, 0)"/>
<line x1="281.7883625784416" y1="2.85" x2="292.5960428866065" y2="2.85" stroke-width="1" stroke-dasharray="1" stroke="rgb(0, 0, 0)"/>
<line x1="282.30797782071227" y1="3.15" x2="293.11565812887716" y2="3.15" stroke-width="1" stroke-dasharray="none" stroke="rgb(0, 0, 0)"/>
<line x1="281.7883625784416" y1="-3.15" x2="292.5960428866065" y2="-3.15" stroke-width="1" stroke-dasharray="none" stroke="rgb(0, 0, 0)"/>
<line x1="282.30797782071227" y1="-2.85" x2="293.11565812887716" y2="-2.85" stroke-width="1" stroke-dasharray="none" stroke="rgb(0, 0, 0)"/>
<text x="287.4520103536594" y="-13.15" font-family="arial" font-size="8px" text-anchor="middle" fill="rgb(0, 0, 0)">6x6x384</text>
<line x1="343.11565812887716" y1="2.85" x2="343.11565812887716" y2="-3.15" stroke-width="1" stroke-dasharray="none" stroke="rgb(0, 0, 0)"/>
<line x1="353.92333843704205" y1="2.85" x2="353.92333843704205" y2="-3.15" stroke-width="1" stroke-dasharray="1" stroke="rgb(0, 0, 0)"/>
<line x1="343.63527337114783" y1="3.15" x2="343.63527337114783" y2="-2.85" stroke-width="1" stroke-dasharray="none" stroke="rgb(0, 0, 0)"/>
<line x1="354.4429536793127" y1="3.15" x2="354.4429536793127" y2="-2.85" stroke-width="1" stroke-dasharray="none" stroke="rgb(0, 0, 0)"/>
<line x1="343.11565812887716" y1="2.85" x2="343.63527337114783" y2="3.15" stroke-width="1" stroke-dasharray="none" stroke="rgb(0, 0, 0)"/>
<line x1="343.11565812887716" y1="-3.15" x2="343.63527337114783" y2="-2.85" stroke-width="1" stroke-dasharray="none" stroke="rgb(0, 0, 0)"/>
<line x1="353.92333843704205" y1="2.85" x2="354.4429536793127" y2="3.15" stroke-width="1" stroke-dasharray="1" stroke="rgb(0, 0, 0)"/>
<line x1="353.92333843704205" y1="-3.15" x2="354.4429536793127" y2="-2.85" stroke-width="1" stroke-dasharray="none" stroke="rgb(0, 0, 0)"/>
<line x1="343.11565812887716" y1="2.85" x2="353.92333843704205" y2="2.85" stroke-width="1" stroke-dasharray="1" stroke="rgb(0, 0, 0)"/>
<line x1="343.63527337114783" y1="3.15" x2="354.4429536793127" y2="3.15" stroke-width="1" stroke-dasharray="none" stroke="rgb(0, 0, 0)"/>
<line x1="343.11565812887716" y1="-3.15" x2="353.92333843704205" y2="-3.15" stroke-width="1" stroke-dasharray="none" stroke="rgb(0, 0, 0)"/>
<line x1="343.63527337114783" y1="-2.85" x2="354.4429536793127" y2="-2.85" stroke-width="1" stroke-dasharray="none" stroke="rgb(0, 0, 0)"/>
<text x="348.77930590409494" y="-13.15" font-family="arial" font-size="8px" text-anchor="middle" fill="rgb(0, 0, 0)">6x6x384</text>
<line x1="404.4429536793127" y1="2.85" x2="404.4429536793127" y2="-3.15" stroke-width="1" stroke-dasharray="none" stroke="rgb(0, 0, 0)"/>
<line x1="413.632540519289" y1="2.85" x2="413.632540519289" y2="-3.15" stroke-width="1" stroke-dasharray="1" stroke="rgb(0, 0, 0)"/>
<line x1="404.9625689215834" y1="3.15" x2="404.9625689215834" y2="-2.85" stroke-width="1" stroke-dasharray="none" stroke="rgb(0, 0, 0)"/>
<line x1="414.15215576155964" y1="3.15" x2="414.15215576155964" y2="-2.85" stroke-width="1" stroke-dasharray="none" stroke="rgb(0, 0, 0)"/>
<line x1="404.4429536793127" y1="2.85" x2="404.9625689215834" y2="3.15" stroke-width="1" stroke-dasharray="none" stroke="rgb(0, 0, 0)"/>
<line x1="404.4429536793127" y1="-3.15" x2="404.9625689215834" y2="-2.85" stroke-width="1" stroke-dasharray="none" stroke="rgb(0, 0, 0)"/>
<line x1="413.632540519289" y1="2.85" x2="414.15215576155964" y2="3.15" stroke-width="1" stroke-dasharray="1" stroke="rgb(0, 0, 0)"/>
<line x1="413.632540519289" y1="-3.15" x2="414.15215576155964" y2="-2.85" stroke-width="1" stroke-dasharray="none" stroke="rgb(0, 0, 0)"/>
<line x1="404.4429536793127" y1="2.85" x2="413.632540519289" y2="2.85" stroke-width="1" stroke-dasharray="1" stroke="rgb(0, 0, 0)"/>
<line x1="404.9625689215834" y1="3.15" x2="414.15215576155964" y2="3.15" stroke-width="1" stroke-dasharray="none" stroke="rgb(0, 0, 0)"/>
<line x1="404.4429536793127" y1="-3.15" x2="413.632540519289" y2="-3.15" stroke-width="1" stroke-dasharray="none" stroke="rgb(0, 0, 0)"/>
<line x1="404.9625689215834" y1="-2.85" x2="414.15215576155964" y2="-2.85" stroke-width="1" stroke-dasharray="none" stroke="rgb(0, 0, 0)"/>
<text x="409.2975547204362" y="-13.15" font-family="arial" font-size="8px" text-anchor="middle" fill="rgb(0, 0, 0)">6x6x256</text>
<line x1="464.1521557615597" y1="0.95" x2="464.1521557615597" y2="-1.05" stroke-width="1" stroke-dasharray="none" stroke="rgb(0, 0, 0)"/>
<line x1="473.341742601536" y1="0.95" x2="473.341742601536" y2="-1.05" stroke-width="1" stroke-dasharray="1" stroke="rgb(0, 0, 0)"/>
<line x1="464.32536084231657" y1="1.05" x2="464.32536084231657" y2="-0.95" stroke-width="1" stroke-dasharray="none" stroke="rgb(0, 0, 0)"/>
<line x1="473.51494768229287" y1="1.05" x2="473.51494768229287" y2="-0.95" stroke-width="1" stroke-dasharray="none" stroke="rgb(0, 0, 0)"/>
<line x1="464.1521557615597" y1="0.95" x2="464.32536084231657" y2="1.05" stroke-width="1" stroke-dasharray="none" stroke="rgb(0, 0, 0)"/>
<line x1="464.1521557615597" y1="-1.05" x2="464.32536084231657" y2="-0.95" stroke-width="1" stroke-dasharray="none" stroke="rgb(0, 0, 0)"/>
<line x1="473.341742601536" y1="0.95" x2="473.51494768229287" y2="1.05" stroke-width="1" stroke-dasharray="1" stroke="rgb(0, 0, 0)"/>
<line x1="473.341742601536" y1="-1.05" x2="473.51494768229287" y2="-0.95" stroke-width="1" stroke-dasharray="none" stroke="rgb(0, 0, 0)"/>
<line x1="464.1521557615597" y1="0.95" x2="473.341742601536" y2="0.95" stroke-width="1" stroke-dasharray="1" stroke="rgb(0, 0, 0)"/>
<line x1="464.32536084231657" y1="1.05" x2="473.51494768229287" y2="1.05" stroke-width="1" stroke-dasharray="none" stroke="rgb(0, 0, 0)"/>
<line x1="464.1521557615597" y1="-1.05" x2="473.341742601536" y2="-1.05" stroke-width="1" stroke-dasharray="none" stroke="rgb(0, 0, 0)"/>
<line x1="464.32536084231657" y1="-0.95" x2="473.51494768229287" y2="-0.95" stroke-width="1" stroke-dasharray="none" stroke="rgb(0, 0, 0)"/>
<text x="468.83355172192626" y="-11.05" font-family="arial" font-size="8px" text-anchor="middle" fill="rgb(0, 0, 0)">2x2x256</text>
<line x1="523.5149476822928" y1="-8.000000000000002" x2="523.5149476822928" y2="8.000000000000002" stroke-width="1" stroke-dasharray="none" stroke="rgb(0, 0, 0)"/>
<line x1="523.5149476822928" y1="8.000000000000002" x2="527.5149476822928" y2="8.000000000000002" stroke-width="1" stroke-dasharray="none" stroke="rgb(0, 0, 0)"/>
<line x1="527.5149476822928" y1="8.000000000000002" x2="527.5149476822928" y2="-8.000000000000002" stroke-width="1" stroke-dasharray="none" stroke="rgb(0, 0, 0)"/>
<line x1="527.5149476822928" y1="-8.000000000000002" x2="523.5149476822928" y2="-8.000000000000002" stroke-width="1" stroke-dasharray="none" stroke="rgb(0, 0, 0)"/>
<text x="525.5149476822928" y="-18.0" font-family="arial" font-size="8px" text-anchor="middle" fill="rgb(0, 0, 0)">1024</text>
<line x1="577.5149476822928" y1="-13.92880901273799" x2="577.5149476822928" y2="13.92880901273799" stroke-width="1" stroke-dasharray="none" stroke="rgb(0, 0, 0)"/>
<line x1="577.5149476822928" y1="13.92880901273799" x2="581.5149476822928" y2="13.92880901273799" stroke-width="1" stroke-dasharray="none" stroke="rgb(0, 0, 0)"/>
<line x1="581.5149476822928" y1="13.92880901273799" x2="581.5149476822928" y2="-13.92880901273799" stroke-width="1" stroke-dasharray="none" stroke="rgb(0, 0, 0)"/>
<line x1="581.5149476822928" y1="-13.92880901273799" x2="577.5149476822928" y2="-13.92880901273799" stroke-width="1" stroke-dasharray="none" stroke="rgb(0, 0, 0)"/>
<text x="579.5149476822928" y="-23.92880901273799" font-family="arial" font-size="8px" text-anchor="middle" fill="rgb(0, 0, 0)">4096</text>
<line x1="631.5149476822928" y1="-13.92880901273799" x2="631.5149476822928" y2="13.92880901273799" stroke-width="1" stroke-dasharray="none" stroke="rgb(0, 0, 0)"/>
<line x1="631.5149476822928" y1="13.92880901273799" x2="635.5149476822928" y2="13.92880901273799" stroke-width="1" stroke-dasharray="none" stroke="rgb(0, 0, 0)"/>
<line x1="635.5149476822928" y1="13.92880901273799" x2="635.5149476822928" y2="-13.92880901273799" stroke-width="1" stroke-dasharray="none" stroke="rgb(0, 0, 0)"/>
<line x1="635.5149476822928" y1="-13.92880901273799" x2="631.5149476822928" y2="-13.92880901273799" stroke-width="1" stroke-dasharray="none" stroke="rgb(0, 0, 0)"/>
<text x="633.5149476822928" y="-23.92880901273799" font-family="arial" font-size="8px" text-anchor="middle" fill="rgb(0, 0, 0)">4096</text>
<line x1="685.5149476822928" y1="-7.924465962305568" x2="685.5149476822928" y2="7.924465962305568" stroke-width="1" stroke-dasharray="none" stroke="rgb(0, 0, 0)"/>
<line x1="685.5149476822928" y1="7.924465962305568" x2="689.5149476822928" y2="7.924465962305568" stroke-width="1" stroke-dasharray="none" stroke="rgb(0, 0, 0)"/>
<line x1="689.5149476822928" y1="7.924465962305568" x2="689.5149476822928" y2="-7.924465962305568" stroke-width="1" stroke-dasharray="none" stroke="rgb(0, 0, 0)"/>
<line x1="689.5149476822928" y1="-7.924465962305568" x2="685.5149476822928" y2="-7.924465962305568" stroke-width="1" stroke-dasharray="none" stroke="rgb(0, 0, 0)"/>
<text x="687.5149476822928" y="-17.924465962305568" font-family="arial" font-size="8px" text-anchor="middle" fill="rgb(0, 0, 0)">1000</text>
<line x1="1.385640646055102" y1="1.425" x2="1.385640646055102" y2="-1.575" stroke-width="1" stroke-dasharray="none" stroke="rgb(0, 0, 255)"/>
<line x1="2.3856406460551023" y1="1.425" x2="2.3856406460551023" y2="-1.575" stroke-width="1" stroke-dasharray="1" stroke="rgb(0, 0, 255)"/>
<line x1="1.6454482671904338" y1="1.575" x2="1.6454482671904338" y2="-1.425" stroke-width="1" stroke-dasharray="none" stroke="rgb(0, 0, 255)"/>
<line x1="2.6454482671904334" y1="1.575" x2="2.6454482671904334" y2="-1.425" stroke-width="1" stroke-dasharray="none" stroke="rgb(0, 0, 255)"/>
<line x1="1.385640646055102" y1="1.425" x2="1.6454482671904338" y2="1.575" stroke-width="1" stroke-dasharray="none" stroke="rgb(0, 0, 255)"/>
<line x1="1.385640646055102" y1="-1.575" x2="1.6454482671904338" y2="-1.425" stroke-width="1" stroke-dasharray="none" stroke="rgb(0, 0, 255)"/>
<line x1="2.3856406460551023" y1="1.425" x2="2.6454482671904334" y2="1.575" stroke-width="1" stroke-dasharray="1" stroke="rgb(0, 0, 255)"/>
<line x1="2.3856406460551023" y1="-1.575" x2="2.6454482671904334" y2="-1.425" stroke-width="1" stroke-dasharray="none" stroke="rgb(0, 0, 255)"/>
<line x1="1.385640646055102" y1="1.425" x2="2.3856406460551023" y2="1.425" stroke-width="1" stroke-dasharray="1" stroke="rgb(0, 0, 255)"/>
<line x1="1.6454482671904338" y1="1.575" x2="2.6454482671904334" y2="1.575" stroke-width="1" stroke-dasharray="none" stroke="rgb(0, 0, 255)"/>
<line x1="1.385640646055102" y1="-1.575" x2="2.3856406460551023" y2="-1.575" stroke-width="1" stroke-dasharray="none" stroke="rgb(0, 0, 255)"/>
<line x1="1.6454482671904338" y1="-1.425" x2="2.6454482671904334" y2="-1.425" stroke-width="1" stroke-dasharray="none" stroke="rgb(0, 0, 255)"/>
<line x1="2.3856406460551023" y1="-1.5750000000000002" x2="54.42080034494853" y2="-7.875" stroke-width="1" stroke-dasharray="none" stroke="rgb(0, 0, 255)"/>
<line x1="2.645448267190434" y1="1.575" x2="54.42080034494853" y2="-7.875" stroke-width="1" stroke-dasharray="none" stroke="rgb(0, 0, 255)"/>
<text x="28.771281292110203" y="34.8" font-family="arial" font-size="8px" text-anchor="middle" fill="rgb(0, 0, 0)">conv3x3, 6</text>
<text x="28.771281292110203" y="42.8" font-family="arial" font-size="8px" text-anchor="middle" fill="rgb(0, 0, 0)">stride (1, 1)</text>
<line x1="55.07031939778686" y1="1.425" x2="55.07031939778686" y2="-1.575" stroke-width="1" stroke-dasharray="none" stroke="rgb(0, 0, 255)"/>
<line x1="57.11799190886608" y1="1.425" x2="57.11799190886608" y2="-1.575" stroke-width="1" stroke-dasharray="1" stroke="rgb(0, 0, 255)"/>
<line x1="55.33012701892219" y1="1.575" x2="55.33012701892219" y2="-1.425" stroke-width="1" stroke-dasharray="none" stroke="rgb(0, 0, 255)"/>
<line x1="57.37779953000141" y1="1.575" x2="57.37779953000141" y2="-1.425" stroke-width="1" stroke-dasharray="none" stroke="rgb(0, 0, 255)"/>
<line x1="55.07031939778686" y1="1.425" x2="55.33012701892219" y2="1.575" stroke-width="1" stroke-dasharray="none" stroke="rgb(0, 0, 255)"/>
<line x1="55.07031939778686" y1="-1.575" x2="55.33012701892219" y2="-1.425" stroke-width="1" stroke-dasharray="none" stroke="rgb(0, 0, 255)"/>
<line x1="57.11799190886608" y1="1.425" x2="57.37779953000141" y2="1.575" stroke-width="1" stroke-dasharray="1" stroke="rgb(0, 0, 255)"/>
<line x1="57.11799190886608" y1="-1.575" x2="57.37779953000141" y2="-1.425" stroke-width="1" stroke-dasharray="none" stroke="rgb(0, 0, 255)"/>
<line x1="55.07031939778686" y1="1.425" x2="57.11799190886608" y2="1.425" stroke-width="1" stroke-dasharray="1" stroke="rgb(0, 0, 255)"/>
<line x1="55.33012701892219" y1="1.575" x2="57.37779953000141" y2="1.575" stroke-width="1" stroke-dasharray="none" stroke="rgb(0, 0, 255)"/>
<line x1="55.07031939778686" y1="-1.575" x2="57.11799190886608" y2="-1.575" stroke-width="1" stroke-dasharray="none" stroke="rgb(0, 0, 255)"/>
<line x1="55.33012701892219" y1="-1.425" x2="57.37779953000141" y2="-1.425" stroke-width="1" stroke-dasharray="none" stroke="rgb(0, 0, 255)"/>
<line x1="57.11799190886608" y1="-1.5750000000000002" x2="108.7201389058673" y2="-3.675" stroke-width="1" stroke-dasharray="none" stroke="rgb(0, 0, 255)"/>
<line x1="57.37779953000141" y1="1.575" x2="108.7201389058673" y2="-3.675" stroke-width="1" stroke-dasharray="none" stroke="rgb(0, 0, 255)"/>
<text x="83.41703001454275" y="33.75" font-family="arial" font-size="8px" text-anchor="middle" fill="rgb(0, 0, 0)">maxpool3x3</text>
<text x="83.41703001454275" y="41.75" font-family="arial" font-size="8px" text-anchor="middle" fill="rgb(0, 0, 0)">stride (2, 2)</text>
<line x1="109.02324779719186" y1="2.375" x2="109.02324779719186" y2="-2.625" stroke-width="1" stroke-dasharray="none" stroke="rgb(0, 0, 255)"/>
<line x1="111.07092030827107" y1="2.375" x2="111.07092030827107" y2="-2.625" stroke-width="1" stroke-dasharray="1" stroke="rgb(0, 0, 255)"/>
<line x1="109.45626049908408" y1="2.625" x2="109.45626049908408" y2="-2.375" stroke-width="1" stroke-dasharray="none" stroke="rgb(0, 0, 255)"/>
<line x1="111.5039330101633" y1="2.625" x2="111.5039330101633" y2="-2.375" stroke-width="1" stroke-dasharray="none" stroke="rgb(0, 0, 255)"/>
<line x1="109.02324779719186" y1="2.375" x2="109.45626049908408" y2="2.625" stroke-width="1" stroke-dasharray="none" stroke="rgb(0, 0, 255)"/>
<line x1="109.02324779719186" y1="-2.625" x2="109.45626049908408" y2="-2.375" stroke-width="1" stroke-dasharray="none" stroke="rgb(0, 0, 255)"/>
<line x1="111.07092030827107" y1="2.375" x2="111.5039330101633" y2="2.625" stroke-width="1" stroke-dasharray="1" stroke="rgb(0, 0, 255)"/>
<line x1="111.07092030827107" y1="-2.625" x2="111.5039330101633" y2="-2.375" stroke-width="1" stroke-dasharray="none" stroke="rgb(0, 0, 255)"/>
<line x1="109.02324779719186" y1="2.375" x2="111.07092030827107" y2="2.375" stroke-width="1" stroke-dasharray="1" stroke="rgb(0, 0, 255)"/>
<line x1="109.45626049908408" y1="2.625" x2="111.5039330101633" y2="2.625" stroke-width="1" stroke-dasharray="none" stroke="rgb(0, 0, 255)"/>
<line x1="109.02324779719186" y1="-2.625" x2="111.07092030827107" y2="-2.625" stroke-width="1" stroke-dasharray="none" stroke="rgb(0, 0, 255)"/>
<line x1="109.45626049908408" y1="-2.375" x2="111.5039330101633" y2="-2.375" stroke-width="1" stroke-dasharray="none" stroke="rgb(0, 0, 255)"/>
<line x1="111.07092030827107" y1="-2.625" x2="161.9802469822447" y2="-3.675" stroke-width="1" stroke-dasharray="none" stroke="rgb(0, 0, 255)"/>
<line x1="111.5039330101633" y1="2.625" x2="161.9802469822447" y2="-3.675" stroke-width="1" stroke-dasharray="none" stroke="rgb(0, 0, 255)"/>
<text x="136.67713809092015" y="25.35" font-family="arial" font-size="8px" text-anchor="middle" fill="rgb(0, 0, 0)">conv5x5, 256</text>
<text x="136.67713809092015" y="33.35" font-family="arial" font-size="8px" text-anchor="middle" fill="rgb(0, 0, 0)">stride (1, 1)</text>
<line x1="162.28335587356926" y1="1.425" x2="162.28335587356926" y2="-1.575" stroke-width="1" stroke-dasharray="none" stroke="rgb(0, 0, 255)"/>
<line x1="171.47294271354554" y1="1.425" x2="171.47294271354554" y2="-1.575" stroke-width="1" stroke-dasharray="1" stroke="rgb(0, 0, 255)"/>
<line x1="162.5431634947046" y1="1.575" x2="162.5431634947046" y2="-1.425" stroke-width="1" stroke-dasharray="none" stroke="rgb(0, 0, 255)"/>
<line x1="171.73275033468087" y1="1.575" x2="171.73275033468087" y2="-1.425" stroke-width="1" stroke-dasharray="none" stroke="rgb(0, 0, 255)"/>
<line x1="162.28335587356926" y1="1.425" x2="162.5431634947046" y2="1.575" stroke-width="1" stroke-dasharray="none" stroke="rgb(0, 0, 255)"/>
<line x1="162.28335587356926" y1="-1.575" x2="162.5431634947046" y2="-1.425" stroke-width="1" stroke-dasharray="none" stroke="rgb(0, 0, 255)"/>
<line x1="171.47294271354554" y1="1.425" x2="171.73275033468087" y2="1.575" stroke-width="1" stroke-dasharray="1" stroke="rgb(0, 0, 255)"/>
<line x1="171.47294271354554" y1="-1.575" x2="171.73275033468087" y2="-1.425" stroke-width="1" stroke-dasharray="none" stroke="rgb(0, 0, 255)"/>
<line x1="162.28335587356926" y1="1.425" x2="171.47294271354554" y2="1.425" stroke-width="1" stroke-dasharray="1" stroke="rgb(0, 0, 255)"/>
<line x1="162.5431634947046" y1="1.575" x2="171.73275033468087" y2="1.575" stroke-width="1" stroke-dasharray="none" stroke="rgb(0, 0, 255)"/>
<line x1="162.28335587356926" y1="-1.575" x2="171.47294271354554" y2="-1.575" stroke-width="1" stroke-dasharray="none" stroke="rgb(0, 0, 255)"/>
<line x1="162.5431634947046" y1="-1.425" x2="171.73275033468087" y2="-1.425" stroke-width="1" stroke-dasharray="none" stroke="rgb(0, 0, 255)"/>
<line x1="171.47294271354554" y1="-1.5750000000000002" x2="222.20906430676231" y2="-1.575" stroke-width="1" stroke-dasharray="none" stroke="rgb(0, 0, 255)"/>
<line x1="171.73275033468087" y1="1.575" x2="222.20906430676231" y2="-1.575" stroke-width="1" stroke-dasharray="none" stroke="rgb(0, 0, 255)"/>
<text x="197.07916049619465" y="25.35" font-family="arial" font-size="8px" text-anchor="middle" fill="rgb(0, 0, 0)">maxpool3x3</text>
<text x="197.07916049619465" y="33.35" font-family="arial" font-size="8px" text-anchor="middle" fill="rgb(0, 0, 0)">stride (2, 2)</text>
<line x1="222.33896811732998" y1="1.425" x2="222.33896811732998" y2="-1.575" stroke-width="1" stroke-dasharray="none" stroke="rgb(0, 0, 255)"/>
<line x1="231.52855495730626" y1="1.425" x2="231.52855495730626" y2="-1.575" stroke-width="1" stroke-dasharray="1" stroke="rgb(0, 0, 255)"/>
<line x1="222.59877573846532" y1="1.575" x2="222.59877573846532" y2="-1.425" stroke-width="1" stroke-dasharray="none" stroke="rgb(0, 0, 255)"/>
<line x1="231.7883625784416" y1="1.575" x2="231.7883625784416" y2="-1.425" stroke-width="1" stroke-dasharray="none" stroke="rgb(0, 0, 255)"/>
<line x1="222.33896811732998" y1="1.425" x2="222.59877573846532" y2="1.575" stroke-width="1" stroke-dasharray="none" stroke="rgb(0, 0, 255)"/>
<line x1="222.33896811732998" y1="-1.575" x2="222.59877573846532" y2="-1.425" stroke-width="1" stroke-dasharray="none" stroke="rgb(0, 0, 255)"/>
<line x1="231.52855495730626" y1="1.425" x2="231.7883625784416" y2="1.575" stroke-width="1" stroke-dasharray="1" stroke="rgb(0, 0, 255)"/>
<line x1="231.52855495730626" y1="-1.575" x2="231.7883625784416" y2="-1.425" stroke-width="1" stroke-dasharray="none" stroke="rgb(0, 0, 255)"/>
<line x1="222.33896811732998" y1="1.425" x2="231.52855495730626" y2="1.425" stroke-width="1" stroke-dasharray="1" stroke="rgb(0, 0, 255)"/>
<line x1="222.59877573846532" y1="1.575" x2="231.7883625784416" y2="1.575" stroke-width="1" stroke-dasharray="none" stroke="rgb(0, 0, 255)"/>
<line x1="222.33896811732998" y1="-1.575" x2="231.52855495730626" y2="-1.575" stroke-width="1" stroke-dasharray="none" stroke="rgb(0, 0, 255)"/>
<line x1="222.59877573846532" y1="-1.425" x2="231.7883625784416" y2="-1.425" stroke-width="1" stroke-dasharray="none" stroke="rgb(0, 0, 255)"/>
<line x1="231.52855495730626" y1="-1.5750000000000002" x2="281.91826638900926" y2="-1.575" stroke-width="1" stroke-dasharray="none" stroke="rgb(0, 0, 255)"/>
<line x1="231.7883625784416" y1="1.575" x2="281.91826638900926" y2="-1.575" stroke-width="1" stroke-dasharray="none" stroke="rgb(0, 0, 255)"/>
<text x="256.7883625784416" y="21.15" font-family="arial" font-size="8px" text-anchor="middle" fill="rgb(0, 0, 0)">conv3x3, 384</text>
<text x="256.7883625784416" y="29.15" font-family="arial" font-size="8px" text-anchor="middle" fill="rgb(0, 0, 0)">stride (1, 1)</text>
<line x1="282.04817019957693" y1="1.425" x2="282.04817019957693" y2="-1.575" stroke-width="1" stroke-dasharray="none" stroke="rgb(0, 0, 255)"/>
<line x1="292.8558505077418" y1="1.425" x2="292.8558505077418" y2="-1.575" stroke-width="1" stroke-dasharray="1" stroke="rgb(0, 0, 255)"/>
<line x1="282.30797782071227" y1="1.575" x2="282.30797782071227" y2="-1.425" stroke-width="1" stroke-dasharray="none" stroke="rgb(0, 0, 255)"/>
<line x1="293.11565812887716" y1="1.575" x2="293.11565812887716" y2="-1.425" stroke-width="1" stroke-dasharray="none" stroke="rgb(0, 0, 255)"/>
<line x1="282.04817019957693" y1="1.425" x2="282.30797782071227" y2="1.575" stroke-width="1" stroke-dasharray="none" stroke="rgb(0, 0, 255)"/>
<line x1="282.04817019957693" y1="-1.575" x2="282.30797782071227" y2="-1.425" stroke-width="1" stroke-dasharray="none" stroke="rgb(0, 0, 255)"/>
<line x1="292.8558505077418" y1="1.425" x2="293.11565812887716" y2="1.575" stroke-width="1" stroke-dasharray="1" stroke="rgb(0, 0, 255)"/>
<line x1="292.8558505077418" y1="-1.575" x2="293.11565812887716" y2="-1.425" stroke-width="1" stroke-dasharray="none" stroke="rgb(0, 0, 255)"/>
<line x1="282.04817019957693" y1="1.425" x2="292.8558505077418" y2="1.425" stroke-width="1" stroke-dasharray="1" stroke="rgb(0, 0, 255)"/>
<line x1="282.30797782071227" y1="1.575" x2="293.11565812887716" y2="1.575" stroke-width="1" stroke-dasharray="none" stroke="rgb(0, 0, 255)"/>
<line x1="282.04817019957693" y1="-1.575" x2="292.8558505077418" y2="-1.575" stroke-width="1" stroke-dasharray="none" stroke="rgb(0, 0, 255)"/>
<line x1="282.30797782071227" y1="-1.425" x2="293.11565812887716" y2="-1.425" stroke-width="1" stroke-dasharray="none" stroke="rgb(0, 0, 255)"/>
<line x1="292.8558505077418" y1="-1.5750000000000002" x2="343.2455619394448" y2="-1.575" stroke-width="1" stroke-dasharray="none" stroke="rgb(0, 0, 255)"/>
<line x1="293.11565812887716" y1="1.575" x2="343.2455619394448" y2="-1.575" stroke-width="1" stroke-dasharray="none" stroke="rgb(0, 0, 255)"/>
<text x="318.11565812887716" y="21.15" font-family="arial" font-size="8px" text-anchor="middle" fill="rgb(0, 0, 0)">conv3x3, 384</text>
<text x="318.11565812887716" y="29.15" font-family="arial" font-size="8px" text-anchor="middle" fill="rgb(0, 0, 0)">stride (1, 1)</text>
<line x1="343.3754657500125" y1="1.425" x2="343.3754657500125" y2="-1.575" stroke-width="1" stroke-dasharray="none" stroke="rgb(0, 0, 255)"/>
<line x1="354.1831460581774" y1="1.425" x2="354.1831460581774" y2="-1.575" stroke-width="1" stroke-dasharray="1" stroke="rgb(0, 0, 255)"/>
<line x1="343.63527337114783" y1="1.575" x2="343.63527337114783" y2="-1.425" stroke-width="1" stroke-dasharray="none" stroke="rgb(0, 0, 255)"/>
<line x1="354.4429536793127" y1="1.575" x2="354.4429536793127" y2="-1.425" stroke-width="1" stroke-dasharray="none" stroke="rgb(0, 0, 255)"/>
<line x1="343.3754657500125" y1="1.425" x2="343.63527337114783" y2="1.575" stroke-width="1" stroke-dasharray="none" stroke="rgb(0, 0, 255)"/>
<line x1="343.3754657500125" y1="-1.575" x2="343.63527337114783" y2="-1.425" stroke-width="1" stroke-dasharray="none" stroke="rgb(0, 0, 255)"/>
<line x1="354.1831460581774" y1="1.425" x2="354.4429536793127" y2="1.575" stroke-width="1" stroke-dasharray="1" stroke="rgb(0, 0, 255)"/>
<line x1="354.1831460581774" y1="-1.575" x2="354.4429536793127" y2="-1.425" stroke-width="1" stroke-dasharray="none" stroke="rgb(0, 0, 255)"/>
<line x1="343.3754657500125" y1="1.425" x2="354.1831460581774" y2="1.425" stroke-width="1" stroke-dasharray="1" stroke="rgb(0, 0, 255)"/>
<line x1="343.63527337114783" y1="1.575" x2="354.4429536793127" y2="1.575" stroke-width="1" stroke-dasharray="none" stroke="rgb(0, 0, 255)"/>
<line x1="343.3754657500125" y1="-1.575" x2="354.1831460581774" y2="-1.575" stroke-width="1" stroke-dasharray="none" stroke="rgb(0, 0, 255)"/>
<line x1="343.63527337114783" y1="-1.425" x2="354.4429536793127" y2="-1.425" stroke-width="1" stroke-dasharray="none" stroke="rgb(0, 0, 255)"/>
<line x1="354.1831460581774" y1="-1.5750000000000002" x2="404.5728574898804" y2="-1.575" stroke-width="1" stroke-dasharray="none" stroke="rgb(0, 0, 255)"/>
<line x1="354.4429536793127" y1="1.575" x2="404.5728574898804" y2="-1.575" stroke-width="1" stroke-dasharray="none" stroke="rgb(0, 0, 255)"/>
<text x="379.4429536793127" y="21.15" font-family="arial" font-size="8px" text-anchor="middle" fill="rgb(0, 0, 0)">conv3x3, 256</text>
<text x="379.4429536793127" y="29.15" font-family="arial" font-size="8px" text-anchor="middle" fill="rgb(0, 0, 0)">stride (1, 1)</text>
<line x1="404.70276130044806" y1="1.425" x2="404.70276130044806" y2="-1.575" stroke-width="1" stroke-dasharray="none" stroke="rgb(0, 0, 255)"/>
<line x1="413.89234814042436" y1="1.425" x2="413.89234814042436" y2="-1.575" stroke-width="1" stroke-dasharray="1" stroke="rgb(0, 0, 255)"/>
<line x1="404.9625689215834" y1="1.575" x2="404.9625689215834" y2="-1.425" stroke-width="1" stroke-dasharray="none" stroke="rgb(0, 0, 255)"/>
<line x1="414.1521557615597" y1="1.575" x2="414.1521557615597" y2="-1.425" stroke-width="1" stroke-dasharray="none" stroke="rgb(0, 0, 255)"/>
<line x1="404.70276130044806" y1="1.425" x2="404.9625689215834" y2="1.575" stroke-width="1" stroke-dasharray="none" stroke="rgb(0, 0, 255)"/>
<line x1="404.70276130044806" y1="-1.575" x2="404.9625689215834" y2="-1.425" stroke-width="1" stroke-dasharray="none" stroke="rgb(0, 0, 255)"/>
<line x1="413.89234814042436" y1="1.425" x2="414.1521557615597" y2="1.575" stroke-width="1" stroke-dasharray="1" stroke="rgb(0, 0, 255)"/>
<line x1="413.89234814042436" y1="-1.575" x2="414.1521557615597" y2="-1.425" stroke-width="1" stroke-dasharray="none" stroke="rgb(0, 0, 255)"/>
<line x1="404.70276130044806" y1="1.425" x2="413.89234814042436" y2="1.425" stroke-width="1" stroke-dasharray="1" stroke="rgb(0, 0, 255)"/>
<line x1="404.9625689215834" y1="1.575" x2="414.1521557615597" y2="1.575" stroke-width="1" stroke-dasharray="none" stroke="rgb(0, 0, 255)"/>
<line x1="404.70276130044806" y1="-1.575" x2="413.89234814042436" y2="-1.575" stroke-width="1" stroke-dasharray="none" stroke="rgb(0, 0, 255)"/>
<line x1="404.9625689215834" y1="-1.425" x2="414.1521557615597" y2="-1.425" stroke-width="1" stroke-dasharray="none" stroke="rgb(0, 0, 255)"/>
<line x1="413.89234814042436" y1="-1.5750000000000002" x2="464.1954570317489" y2="-0.525" stroke-width="1" stroke-dasharray="none" stroke="rgb(0, 0, 255)"/>
<line x1="414.1521557615597" y1="1.575" x2="464.1954570317489" y2="-0.525" stroke-width="1" stroke-dasharray="none" stroke="rgb(0, 0, 255)"/>
<text x="439.1521557615597" y="21.15" font-family="arial" font-size="8px" text-anchor="middle" fill="rgb(0, 0, 0)">maxpool3x3</text>
<text x="439.1521557615597" y="29.15" font-family="arial" font-size="8px" text-anchor="middle" fill="rgb(0, 0, 0)">stride (2, 2)</text>
<text x="498.5149476822928" y="26.0" font-family="arial" font-size="8px" text-anchor="middle" fill="rgb(0, 0, 0)">flatten</text>
<line x1="527.5149476822928" y1="-8.000000000000002" x2="577.5149476822928" y2="-6.964404506368995" stroke-width="1" stroke-dasharray="2" stroke="rgb(0, 0, 255)"/>
<line x1="527.5149476822928" y1="8.000000000000002" x2="577.5149476822928" y2="-6.964404506368995" stroke-width="1" stroke-dasharray="2" stroke="rgb(0, 0, 255)"/>
<text x="552.5149476822928" y="31.92880901273799" font-family="arial" font-size="8px" text-anchor="middle" fill="rgb(0, 0, 0)">dense</text>
<line x1="581.5149476822928" y1="-13.92880901273799" x2="631.5149476822928" y2="-6.964404506368995" stroke-width="1" stroke-dasharray="2" stroke="rgb(0, 0, 255)"/>
<line x1="581.5149476822928" y1="13.92880901273799" x2="631.5149476822928" y2="-6.964404506368995" stroke-width="1" stroke-dasharray="2" stroke="rgb(0, 0, 255)"/>
<text x="606.5149476822928" y="31.92880901273799" font-family="arial" font-size="8px" text-anchor="middle" fill="rgb(0, 0, 0)">dense</text>
<line x1="635.5149476822928" y1="-13.92880901273799" x2="685.5149476822928" y2="-3.962232981152784" stroke-width="1" stroke-dasharray="2" stroke="rgb(0, 0, 255)"/>
<line x1="635.5149476822928" y1="13.92880901273799" x2="685.5149476822928" y2="-3.962232981152784" stroke-width="1" stroke-dasharray="2" stroke="rgb(0, 0, 255)"/>
<text x="660.5149476822928" y="31.92880901273799" font-family="arial" font-size="8px" text-anchor="middle" fill="rgb(0, 0, 0)">dense</text>
</svg>